<svg xmlns="http://www.w3.org/2000/svg" width="60" height="57"><defs><style>.b{fill:#fff}</style></defs><g transform="translate(-1718 -985)"><rect width="60" height="57" rx="17" transform="translate(1718 985)" fill="#8ba9ee"/><path class="b" d="M1763.083 1027.487a15.577 15.577 0 00-1.4-21.792 17.812 17.812 0 01-17.111 22.667c-.227 0 1.143.008-4.252-.025a15.516 15.516 0 0010.983 4.538l14.467-.074a1.111 1.111 0 00.774-1.9z"/><path class="b" d="M1744.572 1026.143a15.569 15.569 0 10-11.781-5.388l-3.46 3.415a1.111 1.111 0 00.774 1.9zm-6.621-21.082h13.315a1.11 1.11 0 010 2.219h-13.315a1.11 1.11 0 010-2.219zm0 4.438h13.315a1.11 1.11 0 010 2.219h-13.315a1.11 1.11 0 010-2.219zm-1.11 5.548a1.11 1.11 0 011.11-1.11h13.315a1.11 1.11 0 010 2.219h-13.315a1.11 1.11 0 01-1.11-1.11z"/></g></svg>