<svg xmlns="http://www.w3.org/2000/svg" width="131.419" height="115.658"><defs><linearGradient id="a" x1="1.068" y1="1.032" x2=".265" y2=".119" gradientUnits="objectBoundingBox"><stop offset="0" stop-color="#d9eafd"/><stop offset="1" stop-color="#8ba9ee"/></linearGradient></defs><path d="M582.951 163.155c-6.744-12.571-18.062-20.452-29.538-20.57h-.274c-8.027 0-19.384 3.61-29.9 19.8-10.514-16.194-21.87-19.8-29.9-19.8h-.274c-11.475.117-22.794 8-29.538 20.57s-9.821 32.343 1.751 50.17c10.6 16.326 29.123 30.807 56.636 44.27l1.322.647 1.322-.647c27.514-13.463 46.039-27.944 56.637-44.27 11.577-17.825 8.497-37.606 1.756-50.17zm-34.375 42.9a2.751 2.751 0 01-2.751 2.752H531.5v14.328a2.751 2.751 0 01-2.752 2.751H517.74a2.751 2.751 0 01-2.752-2.751v-14.327H500.66a2.752 2.752 0 01-2.751-2.752v-11.004a2.752 2.752 0 012.751-2.752h14.328v-14.328a2.751 2.751 0 012.752-2.751h11.005a2.751 2.751 0 012.752 2.751V190l.027 2.3h14.3a2.751 2.751 0 012.751 2.752z" transform="translate(-457.534 -142.583)" fill="url(#a)"/><path d="M63.566 113.698c-8.112-5.147-14.723-12.316-20.92-19.657-6.8-8.051-13.264-16.481-17.994-25.9q-1.088-2.166-2.06-4.428c-3.643-8.507-5.848-17.91-4.84-27.1C19.306 22.432 28.347 9.033 39.709.696c.157-.115.318-.224.476-.337a26.847 26.847 0 00-4.376-.363h-.274c-11.475.117-22.794 8-29.538 20.57s-9.821 32.343 1.751 50.17c10.6 16.326 29.123 30.807 56.636 44.27l1.322.647.655-.321q-1.423-.767-2.795-1.634z" fill="#84a1e2" opacity=".3"/></svg>