<svg xmlns="http://www.w3.org/2000/svg" width="172.704" height="189.042"><path d="M44.511 30.221c4.218-.281 38.8-5.9 38.8-5.9l20.245 9.841s3.374-15.746-3.656-19.4-18-17.433-32.335-12.091-20.244 7.03-20.244 7.03-6.186-.844-7.311 0-14.9 13.215-13.5 28.68 1.125 39.083 1.125 39.083 29.8-7.592 30.367-14.34a38.429 38.429 0 01-8.716-7.029s-8.993-25.593-4.775-25.874z" fill="#ffeb9e"/><path d="M42.437 83.838c.5 0 12.977-2.5 12.977-2.5s.832 8.319 1.664 8.652 18.3 5.49 18.3 5.49l17.8-5.49 2.163-10.648 6.988 4.492s4.159 26.62 2.662 29.116-5.99 8.651-11.813 7.986-45.254-1.331-45.753-1.331-6.323-4.492-5.823-8.818.835-26.949.835-26.949zm72.707-40.429h12.478l-1.664 17.969s-10.648.333-10.814 0 0-17.969 0-17.969zm39.099 1.499l13.476-1.331-1 18.135h-12.478zM41.575 151.142s14.273-.745 14.057 0 0 17.616 0 17.616-12.545.649-12.545 0-1.512-17.616-1.512-17.616z" fill="#bbcffe"/><path d="M166.121 39.985h-12.305a3.076 3.076 0 00-3.076 3.076v3.076a3.076 3.076 0 00-3.076-3.076h-9.229a3.076 3.076 0 00-3.076 2.873l-.212 3.279h-5.938v-6.151a3.076 3.076 0 00-3.076-3.076h-12.309a3.076 3.076 0 00-3.076 3.076V61.52a3.076 3.076 0 003.076 3.076h12.305a3.076 3.076 0 003.08-3.076v-6.153h5.537l-1.68 25.167a6.124 6.124 0 01-6.134 5.6h-19.261V84.81a3.077 3.077 0 00-1.76-2.769 49.523 49.523 0 00-13.124-4.03 3.058 3.058 0 00-1.464.148 30.263 30.263 0 00-5.187-1.1v-8.387a25.64 25.64 0 002.646-1.56c10.336-7.232 18.889-14.5 18.889-30.126v-3.153A33.938 33.938 0 0053.546 6.595a24.583 24.583 0 00-28.937 24.161V76.9a3.076 3.076 0 003.076 3.076 45.6 45.6 0 0031.583-12.633 25.741 25.741 0 002.258 1.329v8.392a30.254 30.254 0 00-5.19 1.083A3.055 3.055 0 0054.875 78a49.522 49.522 0 00-13.124 4.03 3.077 3.077 0 00-1.76 2.769v.1a72.968 72.968 0 00-18.458 47.375c0 8.438.4 18.15 2.9 24.611h-5.975v-6.153a3.076 3.076 0 00-3.076-3.076H3.076A3.076 3.076 0 000 150.732v18.458a3.076 3.076 0 003.076 3.076h12.306a3.076 3.076 0 003.076-3.076v-6.153h17.587a47.068 47.068 0 00-5.282 21.534h6.153a40.818 40.818 0 013.076-15.425v.043a3.076 3.076 0 003.076 3.076h12.306a3.076 3.076 0 003.076-3.076v-12.303h38.516l1.772 2.215a40.916 40.916 0 018.934 25.472h6.153a47.091 47.091 0 00-10.284-29.314l-2.353-2.941-1.179-3.545a38.392 38.392 0 01.772-26.361l.172-.431a9.61 9.61 0 006.722-8.626v-.126l33.344-7.143a12.373 12.373 0 009.724-12.035V61.52a3.076 3.076 0 003.076 3.076h12.305a3.076 3.076 0 003.076-3.076V43.062a3.076 3.076 0 00-3.079-3.077zm-43.068 18.458H116.9V46.138h6.153zM12.309 166.115H6.153v-12.306h6.156zm23.838-10.527l.215 1.307h-5.11c-1.757-2.446-3.565-8.8-3.565-24.62a68.241 68.241 0 0112.305-37.823v18.683c-4.057 9.191-5.405 33.107-3.848 42.452zM71.986 6.2a27.653 27.653 0 0129.287 24.07l-16.837-8.42a3.052 3.052 0 00-1.91-.277L46.785 27.88A27.305 27.305 0 0171.986 6.2zM30.763 73.7V30.756a18.476 18.476 0 0116.754-18.372 33.841 33.841 0 00-7.525 21.448v3.153c0 13.2 6.107 20.424 14.225 26.712a39.456 39.456 0 01-23.454 10.011zm15.382-36.714v-2.744l36.451-6.433 18.907 9.454c-.089 11.456-5.322 17.16-16.246 24.811a20 20 0 01-22.851 0C51.39 54.358 46.145 48.639 46.145 36.986zm12.305 46.9a23.44 23.44 0 016.153-.834 3.076 3.076 0 003.076-3.076V71a23.925 23.925 0 0012.305 0v8.974a3.076 3.076 0 003.076 3.076 23.441 23.441 0 016.153.834v4.926l-15.381 3.307L58.45 88.81zM41.709 148a129.083 129.083 0 012.372-27.419 12.58 12.58 0 002.572 1.369 38.081 38.081 0 01.378 25.7h-3.962a3 3 0 00-1.36.35zm10.586 18.11h-6.15v-12.301h6.153zm6.153-15.382a3.076 3.076 0 00-3.076-3.076h-1.844a44.228 44.228 0 000-24.611h40.481a44.565 44.565 0 00.157 27.687zm43.069-37.377c0 1.67-2.63 3.538-6.153 3.538H52.297c-3.522 0-6.153-1.867-6.153-3.538V86.813a42.666 42.666 0 016.153-2.013v6.5a3.076 3.076 0 002.43 3.009l18.458 3.972a3.025 3.025 0 001.292 0l18.458-3.972a3.076 3.076 0 002.43-3.009v-6.5a42.67 42.67 0 016.153 2.009zm38.2-13.287l-32.052 6.866V92.283h19.264a12.265 12.265 0 0012.262-11.265l2.123-31.8h3.273v44.834a6.183 6.183 0 01-4.864 6.017zm23.322-41.626h-6.153v-12.3h6.153z" fill="#462847"/><path d="M169.627 44.455h-12.305a3.076 3.076 0 00-3.076 3.076v3.076a3.076 3.076 0 00-3.076-3.076h-9.229a3.076 3.076 0 00-3.076 2.873l-.212 3.279h-5.938v-6.151a3.076 3.076 0 00-3.076-3.076H117.33a3.076 3.076 0 00-3.076 3.076V65.99a3.076 3.076 0 003.076 3.076h12.305a3.076 3.076 0 003.08-3.076v-6.153h5.537l-1.68 25.167a6.124 6.124 0 01-6.134 5.6h-19.261V89.28a3.077 3.077 0 00-1.76-2.769 49.523 49.523 0 00-13.124-4.03 3.058 3.058 0 00-1.464.148 30.263 30.263 0 00-5.187-1.1v-8.387a25.64 25.64 0 002.646-1.56c10.336-7.232 18.889-14.5 18.889-30.126v-3.153a33.938 33.938 0 00-54.125-27.238 24.583 24.583 0 00-28.937 24.161V81.37a3.076 3.076 0 003.076 3.076 45.6 45.6 0 0031.583-12.633 25.741 25.741 0 002.258 1.329v8.392a30.254 30.254 0 00-5.19 1.083 3.055 3.055 0 00-1.461-.147 49.522 49.522 0 00-13.124 4.03 3.077 3.077 0 00-1.76 2.769v.1a72.968 72.968 0 00-18.458 47.375c0 8.438.4 18.15 2.9 24.611h-5.975v-6.153a3.076 3.076 0 00-3.076-3.076H6.582a3.076 3.076 0 00-3.076 3.076v18.458a3.076 3.076 0 003.076 3.076h12.306a3.076 3.076 0 003.076-3.076v-6.153h17.587a47.068 47.068 0 00-5.282 21.534h6.153a40.818 40.818 0 013.076-15.425v.043a3.076 3.076 0 003.076 3.076H58.88a3.076 3.076 0 003.076-3.076v-12.303h38.516l1.772 2.215a40.916 40.916 0 018.934 25.472h6.153a47.091 47.091 0 00-10.284-29.314l-2.353-2.941-1.179-3.545a38.392 38.392 0 01.772-26.361l.172-.431a9.61 9.61 0 006.722-8.626v-.126l33.344-7.143a12.373 12.373 0 009.724-12.035V65.99a3.076 3.076 0 003.076 3.076h12.305a3.076 3.076 0 003.076-3.076V47.532a3.076 3.076 0 00-3.079-3.077zm-43.068 18.458h-6.153V50.608h6.153zM15.815 170.585H9.659v-12.306h6.156zm23.838-10.527l.215 1.307h-5.11c-1.757-2.446-3.565-8.8-3.565-24.62a68.241 68.241 0 0112.305-37.823v18.683c-4.057 9.191-5.405 33.107-3.848 42.452zM75.492 10.67a27.653 27.653 0 0129.287 24.07l-16.837-8.42a3.052 3.052 0 00-1.91-.277L50.291 32.35a27.305 27.305 0 0125.201-21.68zm-41.223 67.5V35.226a18.476 18.476 0 0116.754-18.372 33.841 33.841 0 00-7.525 21.448v3.153c0 13.2 6.107 20.424 14.225 26.712a39.456 39.456 0 01-23.454 10.011zm15.382-36.714v-2.744l36.451-6.433 18.907 9.454c-.089 11.456-5.322 17.16-16.246 24.811a20 20 0 01-22.851 0c-11.016-7.716-16.261-13.435-16.261-25.088zm12.305 46.9a23.44 23.44 0 016.153-.834 3.076 3.076 0 003.076-3.076V75.47a23.925 23.925 0 0012.305 0v8.974a3.076 3.076 0 003.076 3.076 23.441 23.441 0 016.153.834v4.926l-15.381 3.307-15.382-3.307zM45.215 152.47a129.083 129.083 0 012.372-27.419 12.58 12.58 0 002.572 1.369 38.081 38.081 0 01.378 25.7h-3.962a3 3 0 00-1.36.35zm10.586 18.11h-6.15v-12.301h6.153zm6.153-15.382a3.076 3.076 0 00-3.076-3.076h-1.844a44.228 44.228 0 000-24.611h40.481a44.565 44.565 0 00.157 27.687zm43.069-37.377c0 1.67-2.63 3.538-6.153 3.538H55.803c-3.522 0-6.153-1.867-6.153-3.538V91.283a42.666 42.666 0 016.153-2.013v6.5a3.076 3.076 0 002.43 3.009l18.458 3.972a3.025 3.025 0 001.292 0l18.458-3.972a3.076 3.076 0 002.43-3.009v-6.5a42.67 42.67 0 016.153 2.009zm38.2-13.287l-32.052 6.866V96.753h19.264a12.265 12.265 0 0012.262-11.265l2.123-31.8h3.273v44.834a6.183 6.183 0 01-4.864 6.017zm23.322-41.626h-6.153v-12.3h6.153z" fill="#585858" opacity=".18"/></svg>