<svg xmlns="http://www.w3.org/2000/svg" width="114.348" height="191.791"><defs><style>.c{fill:#bbcffe}</style></defs><path d="M5.112 95.205c-.48 5.979-1 11.563-1.362 17.156a165.581 165.581 0 002.54 42.948 6.626 6.626 0 001.953 3.728c13.42 10.542 27.36 20.312 42.817 27.708 8.24 3.942 16.758 6.347 26.01 4.3 8.252-1.827 14.238-6.048 16.017-14.862a7 7 0 011.136-2.345c12.272-18.5 10.262-41.949-4.98-57.87-5.234-5.468-11.756-9.02-23.538-12.76.25-1.371.595-2.771.749-4.193a17.039 17.039 0 00-5.435-14.426 61.625 61.625 0 00-10.63-7.864c-6.125-3.8-10.155-8.925-11.49-16.046-.248-1.321-.248-2.689-.371-4.147 12.657-2.4 15.517-12.378 17.811-22.579a90.991 90.991 0 001.754-13.7c.324-4.723-1.938-8.553-5.167-11.824-12-12.16-34.149-10.948-45.683 2.278C2.065 16.645.091 23.659.008 31.144c-.093 8.349.714 16.7.97 25.062.365 11.909.608 23.821.85 35.733.043 2.126-.142 4.233 3.284 3.266zM35.223 57.49c1.249 8.968 3.339 13.77 8.913 18.553 2.22 1.905 4.916 3.245 7.322 4.947 2.577 1.823 5.067 3.769 7.6 5.662l-.561 1.267c-3.488-.742-7.1-1.122-10.437-2.3-6.447-2.289-11.073-6.97-14.959-12.483-.461-.653-1.692-.764-2.567-1.126.007.957-.368 2.172.077 2.832 6.7 9.9 15.571 16.112 28.009 15.651 2.518-.094 3.643.87 4.195 2.995.833 3.208 1.084 6.383-1.046 9.264-.51.691-1.08 1.338-1.621 2a9.326 9.326 0 002.42 1.25 44.547 44.547 0 0121.242 9.567 42.727 42.727 0 0112.271 48.4c-3.19 8.247-8.676 12.814-17.245 14.013a18.115 18.115 0 01-4.677.516 11.95 11.95 0 01-5.312-1.73c-12.534-9.048-24.916-18.296-37.448-27.341-1.792-1.293-2.393-2.275-1.811-4.519 2.341-9.042 4.357-18.166 4.414-27.575.021-3.433-.1-6.875-.386-10.294-.06-.719-1.118-1.354-1.716-2.027a9.583 9.583 0 00-1.289 2.312 8.777 8.777 0 00.085 2.643c.933 12.127-1.467 23.822-4.347 35.039l-3.271 1.5a14.224 14.224 0 002.264 2.715c13.145 9.532 26.567 18.7 39.384 28.655 4.313 3.349 8.333 4.371 13.243 3.4 2.886-.568 5.707-1.471 8.553-2.242.788-.214 1.559-.495 2.53-.807-1.784 4.8-5.5 7.828-10.952 9.349-8.238 2.3-15.975.642-23.537-2.755-15.933-7.158-30.016-17.238-43.788-27.792a5.2 5.2 0 01-1.556-2.992c-3.183-16.781-3.145-33.676-1.734-50.625.536-6.443 1.436-12.151 7.774-16.311 5.977-3.922 10.421-9.873 13.436-16.575 2-4.437 2.186-8.684-1.319-12.665a15.427 15.427 0 01-2.712-4.869c-2.955-8.1-1.263-15.921 1.792-23.573.244-.609 1.5-1.078 2.328-1.139 2.449-.181 4.956.141 7.368-.218 6-.891 11.95-2.051 18.118-3.138-.455 8.16-1.875 16.429-7.185 23.476-2.734 3.628-6.64 5.015-11.2 4.766-1.561-.085-3.655-2.044-4.533.432-.227.649 2.141 2.213 3.871 3.892zM5.535 90.872c-.314-.682-.464-.853-.459-1.018.587-17.271-1.166-34.44-2.145-51.646-.369-6.486.012-13.081 2.683-19.171C12.847 2.548 36.36-2.412 49.633 9.782a21.5 21.5 0 014.561 6.407c1.575 3.249 1.1 3.972-2.166 5.323a51.486 51.486 0 01-19.044 3.579c-9.129.156-9.2.156-11.565 9.172-2.389 9.119-2.454 18.039 3.709 25.887a7.4 7.4 0 011.041 8.247c-4.343 9.689-12.017 16.322-20.634 22.475z" fill="#462847"/><path d="M5.535 90.874c8.617-6.156 16.291-12.788 20.635-22.475a7.4 7.4 0 00-1.041-8.247c-6.163-7.848-6.1-16.768-3.709-25.887 2.362-9.016 2.437-9.016 11.565-9.172a51.488 51.488 0 0019.044-3.579c3.265-1.351 3.741-2.074 2.166-5.323a21.5 21.5 0 00-4.561-6.407C36.361-2.41 12.847 2.55 5.615 19.039 2.944 25.13 2.563 31.724 2.932 38.21c.979 17.206 2.732 34.375 2.145 51.646-.006.165.144.339.458 1.018z" fill="#ffeb9e"/><path class="c" d="M95.404 145.379c-.457-2.113-1.223-6.162-2.277-10.134-.215-.81-1.511-1.332-2.308-1.987-.192 1-.785 2.137-.513 3 3.442 10.859 2.1 20.968-4.3 30.436-.523.773-.3 2.05-.428 3.092 1.015-.445 2.422-.606 2.985-1.38 4.531-6.243 6.613-13.327 6.841-23.027zm-13.19-22.68a16.182 16.182 0 001.086 2.288c1.352 1.784 2.7 3.579 4.184 5.25.428.481 1.31.558 1.984.82.241-.761.927-1.841.648-2.231a71.4 71.4 0 00-5.481-6.715c-.248-.27-1.446.333-2.421.588z"/><g opacity=".18"><path d="M8.494 95.205c-.48 5.979-1 11.563-1.362 17.156a165.581 165.581 0 002.54 42.948 6.626 6.626 0 001.953 3.728c13.42 10.542 27.36 20.312 42.817 27.708 8.24 3.942 16.758 6.347 26.01 4.3 8.252-1.827 14.238-6.048 16.017-14.862a7 7 0 011.136-2.345c12.272-18.5 10.262-41.949-4.98-57.87-5.234-5.468-11.756-9.02-23.538-12.76.25-1.371.595-2.771.749-4.193a17.039 17.039 0 00-5.435-14.426 61.625 61.625 0 00-10.63-7.864c-6.125-3.8-10.155-8.925-11.49-16.046-.248-1.321-.248-2.689-.371-4.147 12.657-2.4 15.517-12.378 17.811-22.579a90.991 90.991 0 001.754-13.7c.324-4.723-1.938-8.553-5.167-11.824-12-12.16-34.149-10.948-45.683 2.278-5.178 5.938-7.152 12.952-7.235 20.437-.093 8.349.714 16.7.97 25.062.365 11.909.608 23.821.85 35.733.043 2.126-.142 4.233 3.284 3.266zM38.605 57.49c1.249 8.968 3.339 13.77 8.913 18.553 2.22 1.905 4.916 3.245 7.322 4.947 2.577 1.823 5.067 3.769 7.6 5.662l-.561 1.267c-3.488-.742-7.1-1.122-10.437-2.3-6.447-2.289-11.073-6.97-14.959-12.483-.461-.653-1.692-.764-2.567-1.126.007.957-.368 2.172.077 2.832 6.7 9.9 15.571 16.112 28.009 15.651 2.518-.094 3.643.87 4.195 2.995.833 3.208 1.084 6.383-1.046 9.264-.51.691-1.08 1.338-1.621 2a9.326 9.326 0 002.42 1.25 44.547 44.547 0 0121.242 9.567 42.727 42.727 0 0112.271 48.4c-3.19 8.247-8.676 12.814-17.245 14.013a18.115 18.115 0 01-4.677.516 11.95 11.95 0 01-5.312-1.73c-12.534-9.048-24.916-18.296-37.448-27.341-1.792-1.293-2.393-2.275-1.811-4.519 2.341-9.042 4.357-18.166 4.414-27.575.021-3.433-.1-6.875-.386-10.294-.06-.719-1.118-1.354-1.716-2.027a9.583 9.583 0 00-1.289 2.312 8.777 8.777 0 00.085 2.643c.933 12.127-1.467 23.822-4.347 35.039l-3.271 1.5a14.224 14.224 0 002.264 2.715c13.145 9.532 26.567 18.7 39.384 28.655 4.313 3.349 8.333 4.371 13.243 3.4 2.886-.568 5.707-1.471 8.553-2.242.788-.214 1.559-.495 2.53-.807-1.784 4.8-5.5 7.828-10.952 9.349-8.238 2.3-15.975.642-23.537-2.755-15.933-7.158-30.016-17.238-43.788-27.792a5.2 5.2 0 01-1.556-2.992c-3.183-16.781-3.145-33.676-1.734-50.625.536-6.443 1.436-12.151 7.774-16.311 5.977-3.922 10.421-9.873 13.436-16.575 2-4.437 2.186-8.684-1.319-12.665a15.427 15.427 0 01-2.712-4.869c-2.955-8.1-1.263-15.921 1.792-23.573.244-.609 1.5-1.078 2.328-1.139 2.449-.181 4.956.141 7.368-.218 6-.891 11.95-2.051 18.118-3.138-.455 8.16-1.875 16.429-7.185 23.476-2.734 3.628-6.64 5.015-11.2 4.766-1.561-.085-3.655-2.044-4.533.432-.227.649 2.141 2.213 3.871 3.892zM8.917 90.872c-.314-.682-.464-.853-.459-1.018.587-17.271-1.166-34.44-2.145-51.646-.369-6.486.012-13.081 2.683-19.171C16.229 2.548 39.742-2.412 53.015 9.782a21.5 21.5 0 014.561 6.407c1.575 3.249 1.1 3.972-2.166 5.323a51.486 51.486 0 01-19.044 3.579c-9.129.156-9.2.156-11.565 9.172-2.389 9.119-2.454 18.039 3.709 25.887a7.4 7.4 0 011.041 8.247c-4.343 9.689-12.017 16.322-20.634 22.475z"/><path class="c" d="M98.786 145.379c-.457-2.113-1.223-6.162-2.277-10.134-.215-.81-1.511-1.332-2.308-1.987-.192 1-.785 2.137-.513 3 3.442 10.859 2.1 20.968-4.3 30.436-.523.773-.3 2.05-.428 3.092 1.015-.445 2.422-.606 2.985-1.38 4.531-6.243 6.613-13.327 6.841-23.027zm-13.19-22.68a16.182 16.182 0 001.086 2.288c1.352 1.784 2.7 3.579 4.184 5.25.428.481 1.31.558 1.984.82.241-.761.927-1.841.648-2.231a71.4 71.4 0 00-5.481-6.715c-.248-.27-1.446.333-2.421.588z"/></g></svg>