<svg xmlns="http://www.w3.org/2000/svg" width="782.571" height="633.303"><defs><style>.a{fill:#e0e0e0}.b{fill:#ebebeb}.d{fill:#263238}.e{fill:#8d8c8c}.f{fill:#fff}.g{fill:#fed638}.i{fill:#8ba9ee}.j{fill:#fafafa}.k{fill:#d9eafd}.m{fill:#455a64}.n{fill:#b78876}.o{fill:#aa6550}.q{fill:#462847}.r{fill:#ffbe9d}.s{fill:#eb996e}</style></defs><path class="a" d="M81.701 85.575h15.966v71.549H81.701z"/><path class="a" d="M53.91 129.332v-15.966h71.549v15.966z"/><path class="a" d="M149.105 121.522a5.751 5.751 0 01-.113-.965c-.05-.7-.118-1.635-.2-2.828l-.136-2.082c-.084-.762-.251-1.588-.388-2.487a43.648 43.648 0 00-1.261-6.142 56.922 56.922 0 00-6.629-15.773 59.128 59.128 0 00-71.029-25.192 54.328 54.328 0 00-14.937 8.043 66.717 66.717 0 00-6.695 5.695 66.885 66.885 0 00-5.782 6.843 57.168 57.168 0 00-8.435 16.261 63.106 63.106 0 00-3.044 18.618 63.111 63.111 0 003.041 18.625 57.149 57.149 0 008.435 16.265 66.923 66.923 0 005.782 6.846 66.463 66.463 0 006.7 5.7 54.3 54.3 0 0014.939 8.044 59.278 59.278 0 0071.026-25.2 56.943 56.943 0 006.628-15.772 43.6 43.6 0 001.26-6.139c.137-.9.3-1.724.388-2.487l.136-2.082c.087-1.193.155-2.13.2-2.827a5.728 5.728 0 01.113-.965 5.3 5.3 0 01.016.966l-.08 2.842-.076 2.1c-.065.768-.212 1.6-.331 2.508a42.236 42.236 0 01-1.155 6.207 56.476 56.476 0 01-6.5 16.013 60.03 60.03 0 01-40.406 28.46 60.256 60.256 0 01-31.619-2.536 55.3 55.3 0 01-15.26-8.169 67.589 67.589 0 01-6.842-5.8 67.844 67.844 0 01-5.914-6.978 58.282 58.282 0 01-8.629-16.6 64.224 64.224 0 01-3.111-19.02 64.221 64.221 0 013.115-19.014 58.278 58.278 0 018.628-16.6 68.074 68.074 0 015.914-6.974 67.453 67.453 0 016.842-5.8 55.3 55.3 0 0115.257-8.159 60.254 60.254 0 0131.619-2.541 60.024 60.024 0 0140.41 28.46 56.482 56.482 0 016.5 16.014 42.358 42.358 0 011.155 6.207c.119.907.267 1.74.331 2.509l.076 2.1.08 2.842a5.319 5.319 0 01-.019.964z"/><path class="b" d="M15.331 253.884s-13.409 4.622.259 33.292 23.291 42.941 23.291 42.941 2.382 6.634-3.171 7.5-17.673-1.4-20.316 5.3c-2.743 6.945 2.173 13.7 12.348 19.782s31.97 20.232 33.939 21.518c1.93 1.264 3.817 4.371.128 5.572s-31.138 3.319-29.353 16.284 32.913 25.253 36.29 26.662 4.154 2.877 3.826 4.743-9.622 1.708-17.406 2.631-16.645 3.356-14.988 10.75 19.862 23.324 64.957 28.974l21.067 1.249 11.954-17.5c23.3-39.021 21.946-63.174 17.139-69.031s-12.18-.369-17.7 5.2-11.112 12.989-12.786 12.1-2.352-2.405-1.384-5.935 10.438-35.624 1.318-45.012-27.684 10.946-30.9 13.115-4.5-1.231-4.311-3.53c.2-2.342 2.464-28.231 3.931-39.992s-.831-19.795-7.993-21.907c-6.906-2.037-12.575 8.91-16.68 12.752s-7.867-2.119-7.867-2.119-5.328-16.365-19.515-44.782-26.343-20.448-26.343-20.448"/><path class="a" d="M127.158 486.072c-10.336-20.91-28.083-58.385-43.488-90.479s-29.368-61.119-39.6-82.08l-12.14-24.811-3.3-6.749c-.362-.757-.641-1.343-.843-1.762-.187-.4-.267-.611-.267-.611s.121.191.327.58c.215.414.515.99.9 1.734l3.406 6.694c2.953 5.817 7.164 14.264 12.328 24.722 10.336 20.91 24.373 49.916 39.772 82s33.084 69.6 43.314 90.56"/><path class="a" d="M32.212 346.777a6.831 6.831 0 011.46.449c.925.325 2.25.835 3.88 1.48 3.259 1.3 7.714 3.2 12.592 5.39l12.466 5.654 3.786 1.689a6.829 6.829 0 011.369.675 6.9 6.9 0 01-1.463-.439 94.448 94.448 0 01-3.876-1.5c-3.246-1.328-7.674-3.29-12.551-5.481l-12.5-5.561-3.8-1.671a6.917 6.917 0 01-1.363-.685zm37.032 14.028c-.169-.066 3.354-9.423 7.867-20.9s8.308-20.726 8.477-20.659-3.353 9.421-7.867 20.9-8.309 20.726-8.477 20.659zm21.429 50.345a7.081 7.081 0 01.891-1.278l2.589-3.351c2.182-2.831 5.18-6.755 8.328-11.2s5.879-8.566 7.824-11.565l2.307-3.552a7.174 7.174 0 01.912-1.265 7.113 7.113 0 01-.692 1.4c-.484.877-1.206 2.133-2.134 3.665-1.847 3.067-4.513 7.241-7.681 11.7s-6.222 8.352-8.5 11.115c-1.146 1.377-2.085 2.48-2.756 3.223a7.118 7.118 0 01-1.088 1.108zm-36.287-5.315a6.044 6.044 0 011.439.063l3.894.414c3.284.379 7.816.947 12.815 1.614s9.522 1.308 12.79 1.8l3.867.621a6.117 6.117 0 011.406.317 6.125 6.125 0 01-1.44-.063l-3.894-.415c-3.284-.378-7.816-.946-12.816-1.613s-9.521-1.308-12.789-1.8l-3.867-.622a6.047 6.047 0 01-1.405-.316zm13.271 46.847a10.059 10.059 0 011.842.1l4.992.512c4.212.462 10.024 1.145 16.439 1.938s12.221 1.55 16.418 2.129l4.967.72a9.842 9.842 0 011.809.353 10.042 10.042 0 01-1.841-.1l-4.992-.514c-4.212-.462-10.025-1.144-16.442-1.938s-12.214-1.548-16.414-2.128l-4.966-.719a9.893 9.893 0 01-1.812-.353zm45.396 5.3a11.366 11.366 0 011.087-1.648c.808-1.127 1.862-2.6 3.131-4.367 2.639-3.689 6.265-8.8 10.108-14.552s7.2-11.044 9.6-14.9c1.154-1.849 2.111-3.382 2.844-4.559a11.551 11.551 0 011.107-1.635 11.165 11.165 0 01-.888 1.765 172.648 172.648 0 01-2.667 4.669c-2.3 3.916-5.592 9.261-9.452 15.02s-7.541 10.841-10.279 14.463a181.77 181.77 0 01-3.3 4.246 11.4 11.4 0 01-1.291 1.498z"/><path d="M646.461 476.628c-31.085-19.038-40.186-57.308-41.1-92.149-.153-5.816-1.16-11.9 1.293-17.154s8.686-9.127 14.03-7c4.432 1.769 6.613 6.669 9.275 10.67a34.01 34.01 0 0014.4 12.179c3.812 1.695 8.455 2.592 11.982.36 4.839-3.065 5.012-10.016 4.628-15.788q-1.076-16.132-2.149-32.261c-.385-5.769-.757-11.663.707-17.249s5.125-10.915 10.523-12.785 12.379.887 13.881 6.467c.624 2.321.293 4.792.6 7.178s1.581 4.97 3.9 5.5c2.345.539 4.557-1.238 6.18-3.032 5.606-6.188 9.2-13.939 12.523-21.634s6.534-15.56 11.557-22.243 12.2-12.172 20.434-13.14 17.355 3.6 19.933 11.593c2.586 8.012-1.663 16.555-6.432 23.453a129.057 129.057 0 01-25.283 27.191c-1.741 1.4-3.629 2.916-4.2 5.1-1.021 3.924 2.855 7.526 6.731 8.561 4.389 1.174 9.031.446 13.564.7s9.529 1.949 11.488 6.1c2.719 5.758-1.842 12.239-6.452 16.583a110.586 110.586 0 01-31.528 20.828c-4.153 1.81-8.54 3.444-11.783 6.633s-5 8.5-2.685 12.444 7.705 4.927 12.1 3.832 8.233-3.748 12.375-5.6c7.753-3.473 18.029-3.544 23.525 3 3.611 4.3 4.284 10.563 2.918 16.036s-4.51 10.307-7.891 14.795c-11.812 15.683-27.364 28.674-45.382 36.165s-34.961 10.247-53.653 4.662" fill="#f5f5f5"/><path class="a" d="M654.121 454.29c4.058-17.855 10.13-37.058 17.17-56.925l5.268-14.691c1.74-4.817 3.465-9.6 5.44-14.163a258.756 258.756 0 0112.86-25.6c4.484-7.946 9.03-15.322 13.329-22.189 4.317-6.86 8.461-13.178 12.483-18.774a205.238 205.238 0 0120.926-24.975 188.78 188.78 0 016.332-6.182l1.695-1.557a4.381 4.381 0 01.6-.5 4 4 0 01-.527.583l-1.621 1.632a305.882 305.882 0 00-6.186 6.319 217.076 217.076 0 00-20.608 25.124c-3.973 5.609-8.07 11.936-12.347 18.807s-8.775 14.264-13.225 22.2a261.4 261.4 0 00-12.753 25.529c-1.959 4.547-3.664 9.284-5.405 14.115s-3.483 9.727-5.259 14.684c-7.034 19.851-13.119 39-17.219 56.788"/><path class="a" d="M682.301 368.451a11.708 11.708 0 01-.713-2.429c-.4-1.577-.9-3.876-1.481-6.727-1.163-5.7-2.5-13.621-3.942-22.363s-2.888-16.628-4.135-22.293a312.51 312.51 0 00-1.517-6.7 11.539 11.539 0 01-.473-2.487 11.536 11.536 0 01.871 2.376c.5 1.546 1.139 3.816 1.848 6.637 1.44 5.64 3.01 13.533 4.453 22.288l3.633 22.4c.453 2.691.839 4.959 1.147 6.781a11.559 11.559 0 01.309 2.517zm73.377-18.349a16.022 16.022 0 01-2.939.534c-1.893.284-4.636.681-8.008 1.279-6.754 1.144-16.026 3.051-26.165 5.6-10.137 2.57-19.212 5.287-25.719 7.441-3.263 1.054-5.879 1.979-7.691 2.606a16.032 16.032 0 01-2.853.886 15.835 15.835 0 012.706-1.278 140.238 140.238 0 017.6-2.935c6.463-2.345 15.535-5.186 25.7-7.765a262.2 262.2 0 0126.3-5.308c3.4-.5 6.166-.788 8.081-.945a15.916 15.916 0 012.988-.115zM654.952 452.871a3.83 3.83 0 01-.563-.874c-.387-.7-.86-1.566-1.431-2.609-1.233-2.269-2.931-5.6-4.975-9.746-4.093-8.285-9.389-19.909-15.056-32.813s-10.848-24.568-14.767-32.927l-4.665-9.887c-.5-1.079-.916-1.968-1.255-2.7a3.848 3.848 0 01-.374-.974 3.884 3.884 0 01.563.875l1.431 2.606c1.233 2.27 2.931 5.6 4.975 9.747 4.093 8.285 9.387 19.909 15.058 32.819s10.85 24.561 14.764 32.922c1.917 4.06 3.493 7.4 4.665 9.886l1.255 2.7a3.885 3.885 0 01.375.975zm96.699-37.735a3.994 3.994 0 01-.955.463l-2.807 1.132c-2.593 1.018-6.094 2.39-10.353 4.059-8.742 3.431-20.762 8.307-34.036 13.712s-25.355 10.178-34.171 13.427c-4.408 1.627-7.986 2.906-10.477 3.74l-2.874.944a3.9 3.9 0 01-1.027.259 4.055 4.055 0 01.953-.465c.754-.3 1.681-.677 2.807-1.13l10.352-4.06c8.742-3.428 20.763-8.306 34.042-13.713s25.349-10.176 34.164-13.425c4.407-1.627 7.987-2.906 10.48-3.74 1.152-.378 2.1-.691 2.875-.944a3.866 3.866 0 011.027-.259z"/><path class="d" d="M782.571 505.3c0 .163-175.2.294-391.266.294-216.144 0-391.3-.131-391.3-.294s175.161-.3 391.3-.3c216.068.005 391.266.137 391.266.3z"/><rect class="e" width="563.541" height="372.664" rx="14.567" transform="translate(111.187 126.058)"/><path class="e" d="M89.163 474.654h610.553v14.81a17.8 17.8 0 01-17.8 17.8H106.963a17.8 17.8 0 01-17.8-17.8v-14.81z"/><path class="d" d="M126.314 140.864h531.711v314.709H126.314zm211.09 330.296l7.576 12.051h106.61l7.035-12.051z"/><path class="b" d="M140.538 151.518h504.356a3.273 3.273 0 013.272 3.273v296.5a3.273 3.273 0 01-3.273 3.273H140.538a3.272 3.272 0 01-3.272-3.27V154.79a3.272 3.272 0 013.272-3.272z"/><path class="f" d="M648.167 456.107H137.042l.943-280.844h510.182z"/><path class="d" d="M180.071 163.221a4.08 4.08 0 11-4.081-4.079 4.081 4.081 0 014.081 4.079zm-24.73 0a4.08 4.08 0 11-4.08-4.079 4.08 4.08 0 014.08 4.079zm12.365 0a4.08 4.08 0 11-4.08-4.079 4.08 4.08 0 014.08 4.079zm483.916 308.028c0 .2-116.524.368-260.23.368-143.756 0-260.254-.164-260.254-.368s116.5-.368 260.254-.368c143.709-.003 260.23.165 260.23.368z"/><path class="g" d="M137.264 405.115h510.985v50.829H137.264z"/><path d="M137.264 405.115h510.985v50.829H137.264z" opacity=".7" fill="#fff"/><circle class="i" cx="18.873" cy="18.873" r="18.873" transform="rotate(-80.73 475.201 -27.047)"/><path class="f" d="M447.056 434.983a3.406 3.406 0 01-3.4-3.4v-7.421a3.403 3.403 0 116.806 0v7.414a3.4 3.4 0 01-3.406 3.407zm0-13.507a2.694 2.694 0 00-2.694 2.686v7.414a2.69 2.69 0 005.38 0v-7.414a2.694 2.694 0 00-2.686-2.686z"/><path class="f" d="M447.056 437.368a6.142 6.142 0 01-4.777-1.889c-2.167-2.395-1.818-6.157-1.8-6.316a.356.356 0 11.709.069c0 .036-.331 3.614 1.625 5.772a5.459 5.459 0 004.246 1.652 5.711 5.711 0 004.3-1.651c2.084-2.17 1.963-5.757 1.962-5.793a.356.356 0 01.343-.37.371.371 0 01.37.342c.006.16.133 3.929-2.161 6.316a6.4 6.4 0 01-4.817 1.868z"/><path class="f" d="M447.055 442.586a.357.357 0 01-.356-.356v-5.217a.356.356 0 11.713 0v5.217a.358.358 0 01-.357.356z"/><circle class="i" cx="18.873" cy="18.873" r="18.873" transform="rotate(-80.73 425.094 31.899)"/><path class="f" d="M340.845 432.605a1.86 1.86 0 111.86-1.86 1.86 1.86 0 01-1.86 1.86zm5.789 0a1.86 1.86 0 111.861-1.86 1.86 1.86 0 01-1.861 1.86zm6.194 0a1.86 1.86 0 111.861-1.86 1.86 1.86 0 01-1.861 1.86z"/><g transform="translate(378.398 412.196)"><circle class="i" cx="18.548" cy="18.548" r="18.548"/><path class="f" d="M16.896 13.417a3.2 3.2 0 00-4.8.974 1.925 1.925 0 00.446 2.413c1.7 1.674 5.282 5.028 6.838 6.484a3.855 3.855 0 003.176 1.031 3.326 3.326 0 002.252-1.395c1.756-2.407-2.45-4.287-2.45-4.287l-1.839 1.931-4.287-4.136 1.879-2.074z"/></g><path class="b" d="M612.595 224.29a19.224 19.224 0 01-19.224-19.223 19.224 19.224 0 0119.224-19.225 19.224 19.224 0 0119.224 19.225 19.223 19.223 0 01-19.224 19.223z"/><path class="d" d="M611.926 205.207a3.065 3.065 0 10-1.862-.019 5.343 5.343 0 00-4.481 5.27h10.695a5.347 5.347 0 00-4.352-5.251zm5.996.914a.441.441 0 01-.441-.441v-4.921a.441.441 0 11.882 0v4.921a.442.442 0 01-.441.441z"/><path class="d" d="M620.382 203.66h-4.922a.441.441 0 110-.882h4.922a.441.441 0 110 .882z"/><path class="j" d="M260.43 456.034l-123.166-.585V175.19H260.43z"/><path class="d" d="M260.429 453.758c-.163 0-.3-62.365-.3-139.277 0-76.939.131-139.291.294-139.291s.3 62.352.3 139.291c0 76.912-.131 139.277-.294 139.277z"/><path class="a" d="M256.635 402.136c0 .163-26.212.294-58.54.294s-58.545-.131-58.545-.294 26.207-.294 58.545-.294 58.54.131 58.54.294zm-27.097-154.132v2.747h-.283v-2.5h-.645v-.25zm1.415 0v2.747h-.279v-2.5h-.647v-.25zm.659.879a.208.208 0 01.208-.213.211.211 0 01.212.213.213.213 0 01-.212.215.211.211 0 01-.208-.215zm0 1.671a.208.208 0 01.208-.212.21.21 0 01.212.212.214.214 0 01-.212.216.211.211 0 01-.208-.216zm2.703-.055v.251h-1.926v-.2l1.141-1.119c.31-.305.37-.49.37-.679 0-.318-.224-.514-.644-.514a.932.932 0 00-.75.305l-.2-.172a1.233 1.233 0 01.973-.393c.558 0 .911.283.911.741a1.13 1.13 0 01-.451.86l-.934.919zm2.217-.557c0 .467-.326.833-1 .833a1.421 1.421 0 01-.985-.354l.137-.223a1.192 1.192 0 00.845.318c.466 0 .714-.228.714-.561 0-.354-.221-.574-.919-.574h-.585l.141-1.377h1.5v.25h-1.25l-.094.876h.354c.827 0 1.142.325 1.142.812zm-4.197 126.033v2.748h-.283v-2.5h-.647v-.251zm1.416 0v2.748h-.283v-2.5h-.648v-.251zm.658.879a.208.208 0 01.208-.212.211.211 0 01.213.212.215.215 0 01-.213.216.212.212 0 01-.208-.216zm0 1.672a.208.208 0 01.208-.212.211.211 0 01.213.212.215.215 0 01-.213.216.212.212 0 01-.208-.216zm3.165-.526h-.549v.723h-.283V378h-1.55v-.2l1.456-1.821h.313l-1.4 1.774h1.192v-.636h.275v.636h.549zm2.104-.086c0 .466-.327.831-1 .831a1.414 1.414 0 01-.984-.353l.137-.223a1.2 1.2 0 00.844.317c.467 0 .714-.227.714-.561 0-.353-.219-.572-.919-.572h-.584l.14-1.378h1.5v.251h-1.256l-.094.876h.353c.836 0 1.149.325 1.149.812z"/><path class="b" d="M214.899 242.199h-54.938l-.158-23.9a24.059 24.059 0 0124.057-24.218h31.038a24.059 24.059 0 0124.059 24.058 24.059 24.059 0 01-24.058 24.06z"/><path class="a" d="M240.6 443.525h-87.125a10.669 10.669 0 01-10.656-10.658v-.468a10.669 10.669 0 0110.656-10.658H240.6a10.669 10.669 0 0110.656 10.659v.468a10.669 10.669 0 01-10.656 10.657zm-87.125-21.116a10 10 0 00-9.99 9.99v.468a10 10 0 009.99 9.991H240.6a10 10 0 009.99-9.991v-.468a10 10 0 00-9.99-9.99z"/><path class="i" d="M246.541 432.304a5.415 5.415 0 11-5.415-5.415 5.415 5.415 0 015.415 5.415z"/><path class="f" d="M240.985 435.648h-.012a.164.164 0 01-.148-.122l-.693-2.562-2.4-.851a.167.167 0 010-.314l5.655-2.019a.167.167 0 01.209.224l-2.454 5.547a.167.167 0 01-.157.097zm-2.7-3.695l2.044.724a.163.163 0 01.105.113l.593 2.192 2.106-4.76z"/><path class="f" d="M240.269 433.001a.167.167 0 01-.112-.29l3.169-2.9a.167.167 0 11.225.245l-3.169 2.9a.166.166 0 01-.113.045z"/><path class="d" d="M167.799 430.832h-1.046v-.271h2.407v.271h-1.046v2.7h-.314zm3.534.469l-1.119 2.5c-.187.438-.424.579-.743.579a.77.77 0 01-.545-.2l.141-.225a.559.559 0 00.408.17c.2 0 .335-.093.463-.373l.1-.218-1-2.232h.314l.843 1.9.842-1.9zm2.694 1.118a1.083 1.083 0 01-1.114 1.14.976.976 0 01-.851-.442v1.247h-.3v-3.062h.29v.442a.974.974 0 01.863-.459 1.082 1.082 0 011.112 1.134zm-.3 0a.835.835 0 10-.834.872.823.823 0 00.832-.872zm2.865.094h-1.87a.828.828 0 00.88.778.881.881 0 00.684-.293l.171.2a1.183 1.183 0 01-2.037-.775 1.077 1.077 0 011.093-1.135 1.066 1.066 0 011.085 1.135c-.001.022-.006.06-.006.09zm-1.87-.23h1.586a.795.795 0 00-1.586 0zm5.295-.131v1.386h-.288v-.348a.841.841 0 01-.77.37c-.506 0-.817-.263-.817-.65 0-.345.222-.634.864-.634h.71v-.137c0-.382-.217-.59-.635-.59a1.141 1.141 0 00-.744.264l-.136-.225a1.415 1.415 0 01.911-.3.794.794 0 01.905.864zm-.3.714v-.366h-.7c-.433 0-.574.171-.574.4 0 .26.208.422.566.422a.717.717 0 00.707-.456zm5.928-.625v1.3h-.3v-1.267c0-.472-.238-.715-.641-.715a.72.72 0 00-.749.808v1.174h-.3v-1.267c0-.472-.238-.715-.646-.715a.721.721 0 00-.749.808v1.174h-.3v-2.236h.29v.408a.9.9 0 01.82-.425.8.8 0 01.8.472.973.973 0 01.885-.472.844.844 0 01.89.953zm2.779.272h-1.871a.827.827 0 00.88.778.881.881 0 00.684-.293l.171.2a1.183 1.183 0 01-2.037-.775 1.077 1.077 0 011.093-1.135 1.066 1.066 0 011.085 1.135c0 .022-.005.06-.005.09zm-1.871-.225h1.586a.795.795 0 00-1.586 0zm2.183.995l.137-.239a1.346 1.346 0 00.794.251c.425 0 .6-.145.6-.366 0-.584-1.45-.123-1.45-1.008 0-.367.314-.638.885-.638a1.516 1.516 0 01.791.208l-.132.242a1.15 1.15 0 00-.658-.191c-.4 0-.584.157-.584.37 0 .6 1.451.149 1.451 1.008 0 .387-.341.638-.923.638a1.5 1.5 0 01-.911-.275zm2.08 0l.137-.239a1.346 1.346 0 00.794.251c.426 0 .6-.145.6-.366 0-.584-1.45-.123-1.45-1.008 0-.367.314-.638.885-.638a1.514 1.514 0 01.791.208l-.132.242a1.144 1.144 0 00-.658-.191c-.4 0-.584.157-.584.37 0 .6 1.451.149 1.451 1.008 0 .387-.341.638-.923.638a1.5 1.5 0 01-.911-.275zm4.08-1.131v1.386h-.288v-.348a.842.842 0 01-.77.37c-.506 0-.817-.263-.817-.65 0-.345.222-.634.863-.634h.71v-.137c0-.382-.217-.59-.634-.59a1.141 1.141 0 00-.744.264l-.136-.225a1.417 1.417 0 01.911-.3.794.794 0 01.905.864zm-.3.714v-.366h-.7c-.433 0-.574.171-.574.4 0 .26.208.422.564.422a.715.715 0 00.708-.456zm3.201-1.565v1.965a.982.982 0 01-1.119 1.119 1.564 1.564 0 01-1.042-.345l.154-.23a1.328 1.328 0 00.88.306c.566 0 .825-.259.825-.811v-.286a1 1 0 01-.872.434 1.085 1.085 0 110-2.169 1.009 1.009 0 01.885.446v-.429zm-.293 1.062a.849.849 0 10-.851.821.8.8 0 00.851-.821zm3.088.15h-1.871a.828.828 0 00.88.778.881.881 0 00.684-.293l.171.2a1.183 1.183 0 01-2.037-.775 1.077 1.077 0 011.088-1.14 1.066 1.066 0 011.085 1.135c.005.027 0 .065 0 .095zm-1.871-.225h1.586a.795.795 0 00-1.586 0zm2.298 1.037a.225.225 0 01.225-.23.229.229 0 01.23.23.232.232 0 01-.23.234.229.229 0 01-.225-.234zm.901 0a.225.225 0 01.225-.23.229.229 0 01.23.23.232.232 0 01-.23.234.229.229 0 01-.225-.234zm.898 0a.226.226 0 01.226-.23.229.229 0 01.228.23.232.232 0 01-.228.234.229.229 0 01-.226-.234z"/><path class="a" d="M153.418 434.491a1.179 1.179 0 01-1.812-1.509l2.438-2.928a.763.763 0 011.173.977l-2.067 2.482a.433.433 0 01-.647-.546l1.592-1.912-.218-.182-1.522 1.826-.074.088.009.007a.7.7 0 001.072.894l.041-.049.038-.037 2.015-2.42a1.047 1.047 0 00-1.607-1.339l-2.546 3.058h.006a1.463 1.463 0 002.239 1.864h.006l2.052-2.464-.219-.182z"/><path class="d" d="M221.718 207.28c0 .1-10.384.183-23.191.183s-23.192-.081-23.192-.183 10.382-.182 23.192-.182 23.191.081 23.191.182zm0 5.736c0 .1-10.384.183-23.191.183s-23.192-.081-23.192-.183 10.382-.183 23.192-.183 23.191.083 23.191.183zm0 5.737c0 .1-10.384.183-23.191.183s-23.192-.083-23.192-.183 10.382-.183 23.192-.183 23.191.083 23.191.183zm0 5.737c0 .1-10.384.183-23.191.183s-23.192-.083-23.192-.183 10.382-.183 23.192-.183 23.191.083 23.191.183zm-23.11 5.736a4.51 4.51 0 01-.914.071l-2.494.058c-2.106.033-5.015.054-8.228.054s-6.124-.021-8.229-.054l-2.494-.058a4.51 4.51 0 01-.914-.071 4.31 4.31 0 01.914-.071l2.494-.059c2.105-.033 5.015-.053 8.229-.053s6.121.02 8.228.053l2.494.059a4.309 4.309 0 01.914.071z"/><path class="b" d="M170.686 259.864h36.85a10.883 10.883 0 0110.882 10.883v4.364a10.883 10.883 0 01-10.883 10.883h-47.732v-15.247a10.883 10.883 0 0110.883-10.883z"/><path class="d" d="M209.51 269.79c0 .1-9.134.182-20.4.182s-20.4-.081-20.4-.182 9.132-.183 20.4-.183 20.4.081 20.4.183zm-15.885 6.361a5.043 5.043 0 01-.978.071l-2.67.058c-2.255.034-5.368.054-8.808.054s-6.554-.02-8.808-.054l-2.67-.058a5.043 5.043 0 01-.979-.071 4.921 4.921 0 01.979-.071l2.67-.058c2.253-.034 5.368-.054 8.808-.054s6.553.02 8.808.054l2.67.058a4.92 4.92 0 01.978.071z"/><path class="a" d="M162.26 341.801v2.747h-.283v-2.5h-.647v-.247zm1.416 0v2.747h-.283v-2.5h-.648v-.247zm.659.877a.208.208 0 01.207-.213.212.212 0 01.213.213.214.214 0 01-.213.215.21.21 0 01-.207-.215zm0 1.671a.207.207 0 01.207-.212.211.211 0 01.213.212.216.216 0 01-.213.217.212.212 0 01-.207-.213zm2.643-.588c0 .459-.334.811-1 .811a1.432 1.432 0 01-.989-.352l.137-.224a1.211 1.211 0 00.852.318c.456 0 .707-.213.707-.553s-.232-.545-.742-.545h-.2v-.208l.761-.954h-1.4v-.253h1.766v.2l-.777.976c.591.034.885.344.885.784zm.395-.586c0-.875.459-1.4 1.1-1.4s1.1.521 1.1 1.4-.464 1.4-1.1 1.4-1.1-.524-1.1-1.4zm1.9 0c0-.733-.33-1.137-.809-1.137s-.808.4-.808 1.137.329 1.139.808 1.139.813-.405.813-1.139z"/><path class="b" d="M241.272 334.781h-72.9a10.883 10.883 0 01-10.884-10.883v-4.364a10.883 10.883 0 0110.884-10.883h62.017a10.883 10.883 0 0110.883 10.883v15.247z"/><path class="d" d="M227.695 318.305c0 .1-12.877.182-28.759.182s-28.761-.081-28.761-.182 12.874-.183 28.761-.183 28.759.081 28.759.183zm0 6.195c0 .1-12.877.183-28.759.183s-28.761-.083-28.761-.183 12.874-.183 28.761-.183 28.759.083 28.759.183z"/><path class="b" d="M168.547 357.439h36.85a10.883 10.883 0 0110.882 10.883v4.364a10.883 10.883 0 01-10.883 10.883h-47.732v-15.247a10.883 10.883 0 0110.883-10.883z"/><path class="d" d="M208.548 366.934c0 .1-9.661.183-21.577.183s-21.578-.082-21.578-.183 9.659-.183 21.578-.183 21.577.083 21.577.183zm-15.402 6.208a6.224 6.224 0 01-1.091.071l-2.974.058c-2.511.034-5.98.054-9.811.054s-7.3-.02-9.813-.054l-2.974-.058a6.217 6.217 0 01-1.089-.071 6.234 6.234 0 011.089-.071l2.974-.058c2.511-.034 5.98-.054 9.813-.054s7.3.02 9.811.054l2.974.058a6.242 6.242 0 011.091.071z"/><path class="k" d="M778.734 179.052c-1.249-10.073-9.771-19.464-19.92-19.47-6 0-11.695 3.13-15.791 7.507a41.169 41.169 0 00-4 4.748 41.1 41.1 0 00-2.991-5.442c-3.155-5.1-8.126-9.292-14-10.47-9.952-1.991-20.156 5.54-23.363 15.169s-.537 20.441 4.738 29.112 14.36 20.006 31.094 25.632c11.536-1.479 26.989-11.712 33.868-19.176s11.619-17.538 10.365-27.61z"/><path class="j" d="M775.076 197.143a1.2 1.2 0 01-.336 0l-.978-.063-3.757-.309-13.8-1.264.248-.153-5.751 14.994-.346.9-.227-.942-5.785-24.019-1.872-7.833.584.117-10.543 14.493-.1.139-.17-.017-24.255-2.536-6.866-.766-1.815-.227a3.2 3.2 0 01-.621-.11 3.063 3.063 0 01.63.014l1.824.136 6.883.6 24.278 2.293-.27.121 10.488-14.522.417-.579.166.695 1.879 7.831 5.728 24.034-.573-.038 5.863-14.951.068-.172.181.019 13.783 1.477 3.745.437.972.131a1.231 1.231 0 01.328.07z"/><path class="k" d="M639.59 562.654c-1.249-10.073-9.771-19.464-19.92-19.47-6 0-11.695 3.13-15.791 7.507a41.169 41.169 0 00-4 4.748 41.1 41.1 0 00-2.991-5.442c-3.155-5.1-8.126-9.292-14-10.47-9.952-1.991-20.156 5.54-23.363 15.169s-.537 20.441 4.738 29.112 14.36 20.006 31.094 25.632c11.536-1.479 26.989-11.712 33.868-19.176s11.619-17.538 10.365-27.61z"/><path class="j" d="M635.932 580.745a1.2 1.2 0 01-.336 0l-.978-.063-3.757-.309-13.8-1.264.248-.153-5.751 14.994-.346.9-.227-.942-5.785-24.019-1.872-7.833.584.117-10.543 14.493-.1.139-.17-.017-24.255-2.536-6.866-.766-1.815-.227a3.2 3.2 0 01-.621-.11 3.063 3.063 0 01.63.014l1.824.136 6.883.6 24.278 2.293-.27.121 10.488-14.522.417-.579.166.695 1.879 7.831 5.728 24.034-.573-.038 5.863-14.951.068-.172.181.019 13.783 1.477 3.745.437.972.131a1.231 1.231 0 01.328.07z"/><path class="k" d="M95.942 214.683c-2.266-6.512-9.266-11.536-16.008-10.092a15.114 15.114 0 00-9.419 7.239 27.861 27.861 0 00-1.982 3.724 28.08 28.08 0 00-2.763-3.189 15.123 15.123 0 00-10.8-4.956c-6.9.1-12.6 6.553-13.356 13.408s2.558 13.654 7.3 18.661 12.392 11.241 24.31 12.591c7.452-2.627 16.256-11.628 19.761-17.566s5.222-13.307 2.957-19.82z"/><path class="j" d="M96.091 227.221a.828.828 0 01-.223.05l-.658.1-2.54.33-9.35 1.13.143-.137-1.682 10.779-.1.65-.286-.594c-2.2-4.583-4.668-9.719-7.267-15.129-.8-1.675-1.591-3.325-2.361-4.936l.405-.006-4.933 11.125-.048.108-.115.012-16.471 1.777-4.67.471-1.238.107a2.066 2.066 0 01-.428.016 2.085 2.085 0 01.421-.08l1.231-.171 4.656-.583 16.453-1.94-.162.12c1.5-3.421 3.152-7.174 4.895-11.142l.2-.445.209.438 2.365 4.933 7.231 15.148-.387.055 1.763-10.766.02-.124.123-.012 9.367-.984 2.549-.244.665-.051a.854.854 0 01.223-.005z"/><path d="M103.861 595.917c-2.266-6.512-9.266-11.536-16.008-10.092a15.114 15.114 0 00-9.419 7.239 27.861 27.861 0 00-1.982 3.724 28.08 28.08 0 00-2.763-3.189 15.123 15.123 0 00-10.8-4.956c-6.9.1-12.6 6.553-13.356 13.408s2.558 13.654 7.3 18.661 12.392 11.241 24.31 12.591c7.452-2.627 16.256-11.628 19.761-17.566s5.222-13.307 2.957-19.82z" fill="#efefef"/><path class="j" d="M104.01 608.455a.828.828 0 01-.223.05l-.658.1-2.54.33-9.35 1.13.143-.137-1.682 10.779-.1.65-.286-.594c-2.2-4.583-4.668-9.719-7.267-15.129-.8-1.675-1.591-3.325-2.361-4.936l.405-.006-4.933 11.125-.048.108-.115.012-16.471 1.777-4.67.471-1.238.107a2.066 2.066 0 01-.428.016 2.085 2.085 0 01.421-.08l1.231-.171 4.656-.583 16.453-1.94-.162.12c1.5-3.421 3.152-7.174 4.895-11.142l.2-.445.209.438 2.365 4.933 7.231 15.148-.387.055 1.763-10.766.02-.124.123-.012 9.367-.984 2.549-.244.665-.051a.854.854 0 01.223-.005z"/><rect class="a" width="8.873" height="50.778" rx="3.443" transform="translate(497.73 32.864)"/><rect class="g" width="8.873" height="35.603" rx="3.443" transform="translate(497.73 48.04)"/><rect class="a" width="8.873" height="50.778" rx="3.443" transform="translate(512.262 32.864)"/><rect class="g" width="8.873" height="27.733" rx="3.443" transform="translate(512.262 55.909)"/><rect class="a" width="8.873" height="50.778" rx="3.443" transform="translate(528.703 32.864)"/><rect class="g" width="8.873" height="41.605" rx="3.443" transform="translate(528.703 42.037)"/><path class="d" d="M502.296 83.642a10.476 10.476 0 001.109-.206 4.252 4.252 0 003.068-4.091l-.021-2.8-.041-6.832-.059-17.785c0-3.347-.01-6.86-.016-10.5v-2.755a9.769 9.769 0 00-.183-2.7 4.207 4.207 0 00-8.026.231 13.966 13.966 0 00-.123 2.718v2.756c0 3.643-.01 7.155-.016 10.5l-.058 17.786-.041 6.832c0 1-.028 1.949-.009 2.794a4.156 4.156 0 00.722 2.143 4.336 4.336 0 002.58 1.76c.721.149 1.122.11 1.12.143a3.511 3.511 0 01-1.143-.035 4.369 4.369 0 01-3.54-3.994c-.035-.877-.023-1.8-.036-2.81-.011-2.018-.025-4.307-.041-6.832l-.058-17.786-.016-10.5v-4.148a5.467 5.467 0 01.137-1.459 4.6 4.6 0 014.444-3.481 4.7 4.7 0 012.876.827 4.649 4.649 0 011.753 2.393 5.132 5.132 0 01.2 1.466v4.15l-.016 10.5-.059 17.785-.04 6.832q-.014 1.505-.024 2.8a4.4 4.4 0 01-.678 2.292 4.277 4.277 0 01-2.622 1.9 3.207 3.207 0 01-1.143.106zm14.532 0a10.476 10.476 0 001.108-.206 4.251 4.251 0 003.068-4.091l-.021-2.8-.041-6.832-.059-17.785c0-3.347-.01-6.86-.016-10.5v-2.755a9.777 9.777 0 00-.183-2.7 4.207 4.207 0 00-8.026.231 13.866 13.866 0 00-.124 2.724v2.756l-.016 10.5-.059 17.786-.04 6.832c0 1-.028 1.949-.009 2.794a4.156 4.156 0 00.722 2.143 4.336 4.336 0 002.58 1.76c.721.149 1.121.11 1.12.143a3.512 3.512 0 01-1.143-.035 4.37 4.37 0 01-3.54-3.994c-.035-.877-.023-1.8-.036-2.81l-.041-6.832-.058-17.786-.016-10.5v-4.154a5.46 5.46 0 01.137-1.459 4.6 4.6 0 014.444-3.481 4.7 4.7 0 012.874.827 4.638 4.638 0 011.754 2.393 5.1 5.1 0 01.206 1.466v4.15l-.016 10.5-.059 17.785-.041 6.832-.023 2.8a4.4 4.4 0 01-.678 2.292 4.277 4.277 0 01-2.622 1.9 3.206 3.206 0 01-1.146.106zm16.44 0a10.418 10.418 0 001.109-.206 4.251 4.251 0 003.069-4.091l-.023-2.8-.04-6.832-.059-17.785-.016-10.5v-2.755a9.813 9.813 0 00-.183-2.7 4.207 4.207 0 00-8.026.231 13.78 13.78 0 00-.125 2.724v2.756l-.016 10.5-.059 17.786-.041 6.832c0 1-.028 1.949-.009 2.794a4.181 4.181 0 00.722 2.143 4.343 4.343 0 002.581 1.76c.722.149 1.122.11 1.12.143a3.5 3.5 0 01-1.141-.035 4.366 4.366 0 01-3.54-3.994c-.036-.877-.024-1.8-.036-2.81l-.041-6.832-.059-17.786c0-3.349-.01-6.861-.016-10.5v-4.154a5.46 5.46 0 01.138-1.459 4.6 4.6 0 014.444-3.481 4.7 4.7 0 012.867.831 4.643 4.643 0 011.753 2.393 5.056 5.056 0 01.2 1.466v4.15c0 3.642-.01 7.154-.016 10.5l-.058 17.785-.041 6.832-.023 2.8a4.41 4.41 0 01-.678 2.292 4.279 4.279 0 01-2.622 1.9 3.213 3.213 0 01-1.135.102z"/><path class="d" d="M517.658.021a5.5 5.5 0 01.959-.016l2.82.08c.619.028 1.316.028 2.078.092l2.488.35 2.9.417 3.243.8a52.523 52.523 0 0115.722 6.858 55.478 55.478 0 0125.48 41.695 57.494 57.494 0 01.153 7.6c-.089 1.285-.063 2.593-.251 3.888s-.393 2.6-.589 3.915a55.785 55.785 0 01-5.283 15.469 59.572 59.572 0 01-10.1 13.9 58.417 58.417 0 01-14.556 10.456 52.877 52.877 0 01-17.743 5.446 35.249 35.249 0 01-4.732.4 42.687 42.687 0 01-4.784.087 56.858 56.858 0 01-9.582-1.21 56 56 0 01-19.076-8.027l.579.059-19.43 7.8-1.15.462.328-1.193q2.941-10.7 5.712-20.773l.1.514a55.759 55.759 0 01-10.369-23.737 50.573 50.573 0 01-.756-12.161 39.1 39.1 0 01.552-5.841l.441-2.843c.173-.934.458-1.839.679-2.751a55.574 55.574 0 0121.679-31.6 53.126 53.126 0 0112.9-6.806l2.906-1.041 2.759-.7 2.524-.626c.809-.156 1.591-.239 2.322-.352 1.47-.187 2.759-.44 3.89-.5l2.857-.1 1.743-.038a2.6 2.6 0 01.591.02 2.617 2.617 0 01-.589.081l-1.736.137-2.836.191c-1.122.087-2.4.371-3.855.586a55.262 55.262 0 00-44.188 40.995c-.213.9-.489 1.785-.654 2.7l-.419 2.793a38.14 38.14 0 00-.515 5.734 49.525 49.525 0 00.787 11.922 54.745 54.745 0 0010.227 23.22l.175.232-.077.282-5.67 20.785-.821-.733 19.421-7.82.3-.123.275.182a54.862 54.862 0 0018.65 7.84 55.571 55.571 0 009.365 1.184 41.6 41.6 0 004.678-.084 34.233 34.233 0 004.627-.39 51.76 51.76 0 0017.353-5.307 57.337 57.337 0 0014.257-10.2 58.549 58.549 0 009.923-13.585 54.813 54.813 0 005.224-15.135q.3-1.933.593-3.836c.19-1.27.167-2.552.261-3.812a54.057 54.057 0 00-9.04-32.921 56.07 56.07 0 00-15.9-15.737 52.924 52.924 0 00-15.464-6.972l-3.2-.853-2.872-.471-2.464-.407c-.756-.084-1.448-.1-2.062-.152l-2.806-.2a5.364 5.364 0 01-.952-.119z"/><path class="j" d="M462.968 376.259l4.888 4.887a2.912 2.912 0 002 .828 2.875 2.875 0 002-.828 2.84 2.84 0 00.828-2 2.939 2.939 0 00-.828-2l-4.887-4.887a2.915 2.915 0 00-2-.829 2.881 2.881 0 00-2 .829 2.843 2.843 0 00-.828 2 2.95 2.95 0 00.828 2z"/><path class="m" d="M480.705 302.605a51.073 51.073 0 01-10.946 0 50.868 50.868 0 0110.946 0z"/><path class="n" d="M518.948 176.532c-1.94-5.87 1.562-26.918-3.049-26.958-5.877-.051-4.187 23.8-4.2 25.928-.012 2.071-3.1 2.107-2.98.186.163-2.763 1.083-29.974-4.8-29.5-3.261.265-2.851 6.206-2.851 6.206s1.824 27.214-.962 27.346c-2.829.136-3.776-15.743-4.006-21.328-.221-5.357-2.475-7.483-4.934-5.687-2.627 1.919-1.974 17.913-1.838 23.281s.771 20.093-5.44 12.935-13.621-10.384-16.2-9.879-2.716 4.3-.057 5.533c2.151 1 5.244 3.761 7.488 5.932a33.828 33.828 0 014.567 6.151 29.523 29.523 0 013.742 9.022 18.362 18.362 0 009.265 11.866l-.293 9.972 28.685-2.493.55-18.868c.292-14.42 2.815-24.121 4.337-32.7 2.426-13.679.663-14.1-.977-14.022-3.616.178-4.152 22.806-6.047 17.077z"/><path class="o" d="M518.95 195.046a30.831 30.831 0 00-3.941.981 15.23 15.23 0 00-7.444 5.958 14.733 14.733 0 00-1.318 2.644l-.171.437-.351-.294a23.7 23.7 0 00-6.648-3.9c-1.812-.7-2.964-.946-2.944-1.04a9.6 9.6 0 013.086.638 21.349 21.349 0 016.928 3.8l-.522.143a14.578 14.578 0 011.37-2.785 15.063 15.063 0 013.821-4.014 14.8 14.8 0 014.036-2.033 12.876 12.876 0 012.983-.577 3.43 3.43 0 011.115.042zm-3.991 20.164c.069.155-2.962 1.455-6.965 1.942-4 .512-7.258 0-7.23-.17.016-.2 3.233 0 7.146-.5 3.915-.472 6.985-1.464 7.049-1.272z"/><path class="a" d="M437.981 216.069s14.947 7.636 22.814 18.636 31.6 45.093 31.6 45.093l-3.354-51.745 36.674-4.751s10.675 52.117 13.168 70.137c2.334 16.868 1.359 33.46-15.109 42.512-19.436 10.684-41.507-3.741-48.844-9.216-9.117-6.8-25.95-17.89-25.95-17.89z"/><path class="i" d="M419.556 209.617l-10.462-11.692-45.738-3.509-5.929 9.583 16.029 100.057-7.22 101.059h59.6z"/><path d="M369.001 381.079c1.572-1.679 4.152-3.989 6.452-4.04 16.464-.363 33.285-2.009 49.751-2.371l.63 30.446-8.017-3.749c-.454-3.458-1.034-7.591-4.191-9.072-1.785-.838-3.877-.51-5.812-.127-5.948 1.175-11.855 2.712-17.907 3.088s-12.384-.507-17.467-3.812a10.661 10.661 0 01-4.178-4.513 5.528 5.528 0 01.739-5.85z"/><path class="a" d="M409.095 197.925l29.3 18.963 6.189 20.341 5.933 63.411-6.533 64.908 11.29 39.567h-29.44l-.06-15.611-3.136-109.887-3.082-70z"/><path class="d" d="M424.868 294.767a5.883 5.883 0 00.487-.818l1.3-2.406c.543-1.058 1.069-2.415 1.75-3.962.323-.781.587-1.645.912-2.546s.664-1.857.927-2.887c2.47-8.142 4.1-19.9 3.759-32.873-.034-1-.072-2-.141-2.988l-.011-.172-.161-.067-4.591-1.93.066.475 4.585-3.683.1-.077.006-.113a39.928 39.928 0 00-2.089-13.115c-1.154-3.838-2.419-7.144-3.524-9.861s-2.075-4.841-2.765-6.284a57.145 57.145 0 00-.81-1.645 3.005 3.005 0 00-.316-.551 3.714 3.714 0 00.231.592l.73 1.679c.637 1.465 1.551 3.609 2.616 6.336s2.281 6.039 3.395 9.865c1.079 3.812 2.222 8.2 1.993 12.942l.1-.19-4.594 3.671-.367.293.432.182 4.588 1.936-.172-.239c.066.971.1 1.964.138 2.962.342 12.911-1.221 24.622-3.577 32.745-.249 1.029-.586 1.979-.883 2.884s-.559 1.766-.865 2.548c-.651 1.548-1.144 2.913-1.654 3.98l-1.2 2.446a6.1 6.1 0 00-.395.871zm20.583 41.286a5.411 5.411 0 00.253-.853l.619-2.474c.272-1.074.583-2.393.886-3.937s.7-3.291 1.015-5.248c.344-1.95.708-4.09 1-6.4.351-2.3.59-4.782.869-7.387.471-5.217.787-10.973.793-17.021a191.517 191.517 0 00-.856-17.023c-.288-2.6-.537-5.08-.9-7.384-.3-2.31-.677-4.448-1.027-6.4-.317-1.956-.718-3.7-1.034-5.243s-.626-2.861-.9-3.933l-.628-2.471a5.241 5.241 0 00-.257-.852 5.244 5.244 0 00.145.879q.2.932.525 2.492c.242 1.079.526 2.4.8 3.948s.658 3.293.95 5.249c.325 1.949.674 4.085.956 6.393.338 2.3.569 4.772.843 7.369.46 5.2.782 10.944.809 16.975-.006 6.029-.3 11.767-.746 16.972-.265 2.6-.485 5.073-.814 7.372-.274 2.308-.615 4.446-.932 6.4-.285 1.957-.65 3.707-.931 5.252s-.552 2.871-.79 3.95l-.516 2.5a5.254 5.254 0 00-.132.875zm-7.097 53.075a11.927 11.927 0 001.274 2.639 43.063 43.063 0 008.935 10.906 11.891 11.891 0 002.336 1.768 20.317 20.317 0 00-2.066-2.062 59.838 59.838 0 01-8.863-10.82 20.17 20.17 0 00-1.616-2.431z"/><path d="M423.729 336.03c-3.1-1.615-6.892-.773-10.151.489s-6.5 2.936-10 2.9c-4.743-.044-11.474-1.773-13.956-5.815a54.076 54.076 0 01-6.009-14.848c-3.781-17.394-4.637-32.649-8.418-50.045-2.058-9.467-4.668-20.421-8.181-29.45-3.4-8.743-6.552-17.794-9.223-26.787.468 20.4.944 40.879 4.1 61.044 2.028 12.966 5.156 25.753 6.86 38.766 1.459 11.145 1.867 22.4 2.273 33.631l10.6 12.963 29.222.594 15.262-19.677z"/><path class="a" d="M317.826 215.207a36.091 36.091 0 00-22.175 25.676c-8.577 37.825-23.261 88.136-23.492 104.368-.293 20.674 8.747 34.825 20.547 37.435 9.332 2.063 93.921-2.567 93.921-2.567l4-35.3-68.54-6.3 9.38-52.41-9.286-72.593z"/><path class="a" d="M322.181 213.519l18.938-7.739 21.648-11.7.2.628c-2.443 4.187-5.041 11.912-4.128 16.674l16.609 86.679-3.769 63.328-5.447 43.724h-54.558l19.79-46.566-9.737-87.459z"/><path class="d" d="M332.013 280.813a2.516 2.516 0 00-.147.583c-.088.446-.2 1-.33 1.678-.282 1.542-.665 3.637-1.134 6.191l-3.563 20.457-3.414 20.486c-.4 2.566-.73 4.67-.972 6.219l-.236 1.7a2.4 2.4 0 00-.044.6 2.4 2.4 0 00.157-.578c.091-.446.2-1 .341-1.678l1.149-6.188c.947-5.23 2.215-12.462 3.578-20.459s2.563-15.236 3.4-20.485l.957-6.222.225-1.7a2.338 2.338 0 00.033-.604zm20.363-80.627a.692.692 0 00-.077.21l-.175.634c-.138.561-.382 1.381-.606 2.465a77.143 77.143 0 00-1.446 9.328 105.734 105.734 0 00-.36 14.231c.186 5.41.759 11.4 1.575 17.734l.026.2.2.037 6.191 1.148-.211-.381c-.352.95-.72 1.973-1 3.031-2.014 7.353-1.129 14.79.707 21.012a66.236 66.236 0 007.274 15.67c2.584 4.192 4.921 7.418 6.527 9.647l1.878 2.548.5.654a.141.141 0 10.046-.034l-.456-.686c-.434-.634-1.033-1.506-1.791-2.609-1.55-2.268-3.835-5.525-6.364-9.729a67.29 67.29 0 01-7.116-15.609c-1.792-6.165-2.639-13.5-.662-20.714.277-1.039.637-2.041.981-2.974l.119-.321-.33-.061-6.194-1.14.226.239c-.827-6.327-1.421-12.292-1.638-17.682a110.223 110.223 0 01.234-14.179 87.038 87.038 0 011.276-9.322c.192-1.086.4-1.913.511-2.481l.126-.645a.786.786 0 00.029-.221z"/><path class="g" d="M352.377 289.095v-13.827s-.179-3.412 2.695-2.694 2.334 6.105 2.334 6.105.54 21.011-.718 20.832-1.739-1.8-1.739-1.8v-8.08z"/><path class="d" d="M340.426 289.952a48.786 48.786 0 007.408.283 48.8 48.8 0 007.409-.283 48.491 48.491 0 00-7.409-.284 48.482 48.482 0 00-7.408.284zm-27.363-66.542a10.4 10.4 0 001.55.574 36.039 36.039 0 014.109 1.778 31.944 31.944 0 0111.115 9.471 23.616 23.616 0 012.186 3.559 22.658 22.658 0 011.314 3.662 36.756 36.756 0 011.1 6.535c.161 1.887.192 3.423.2 4.483a13.267 13.267 0 00.039 1.653 7.125 7.125 0 00.182-1.647 41.335 41.335 0 00-.026-4.518 34.33 34.33 0 00-1-6.639 22.431 22.431 0 00-1.317-3.765 23.451 23.451 0 00-2.23-3.656 30.8 30.8 0 00-11.394-9.5 28.726 28.726 0 00-4.22-1.63 8.378 8.378 0 00-1.608-.36zm73.563 156.709a3.777 3.777 0 01.031-.665c.044-.476.1-1.115.176-1.924l.746-7.25 2.778-25.488.243.3-25.456-2.158-43.021-3.788a22.391 22.391 0 00-12.566 2.48 24.862 24.862 0 00-3 1.876l-.734.56a1.294 1.294 0 01-.263.178 16.982 16.982 0 013.892-2.816 22.281 22.281 0 0112.711-2.692l43.039 3.617 25.448 2.21.275.024-.032.273-2.991 25.465-.895 7.233-.259 1.914a3.841 3.841 0 01-.122.651z"/><path class="d" d="M368.22 381.063a7.394 7.394 0 01-.2-1.49c-.1-.963-.188-2.36-.256-4.087a108.733 108.733 0 012.381-26.871c.371-1.689.706-3.048.971-3.979a7.37 7.37 0 01.462-1.431 7.345 7.345 0 01-.239 1.484c-.208 1.061-.47 2.405-.785 4.008-.638 3.388-1.381 8.094-1.85 13.332s-.555 10-.524 13.446l.068 4.084a7.272 7.272 0 01-.028 1.504zm9.702-11.07a1.482 1.482 0 01.841-.144 3.822 3.822 0 012.2.785 3.625 3.625 0 011.5 3.121 3.987 3.987 0 01-2.422 3.461 3.921 3.921 0 01-4.11-.971 3.425 3.425 0 01-.819-3.356 3.567 3.567 0 011.305-1.939c.457-.322.768-.38.777-.353.021.046-.251.176-.631.531a3.619 3.619 0 00-1.048 1.862 3.03 3.03 0 00.8 2.875 3.426 3.426 0 003.511.8 3.494 3.494 0 002.093-2.946 3.236 3.236 0 00-1.212-2.759 3.946 3.946 0 00-1.96-.884 5.989 5.989 0 01-.825-.083z"/><path class="d" d="M363.009 193.783s-.118.08-.36.221l-1.084.618-4.242 2.371-16.129 8.923h-.016l-27.176 11.39a29.127 29.127 0 00-13.678 11.3 38.717 38.717 0 00-4.319 8.739 45.377 45.377 0 00-2.349 9.928v.039c-5.025 21.5-10.731 46.17-16.255 72.383q-1.778 8.459-3.359 16.731c-.273 1.375-.5 2.752-.752 4.122s-.509 2.734-.679 4.094a44.4 44.4 0 00-.416 8.147 40.9 40.9 0 003.594 15.368 29.687 29.687 0 004.045 6.5 23.216 23.216 0 005.673 4.842 24.152 24.152 0 0013.818 3.388l13.758-.277c8.877-.221 17.145-.48 24.692-.733l35.748-1.307 9.719-.368 2.522-.076c.569-.016.862-.009.862-.009s-.291.034-.86.069l-2.526.143-9.714.479c-8.437.394-20.648.933-35.742 1.494-7.547.281-15.815.563-24.694.8l-13.763.308a24.677 24.677 0 01-14.107-3.441 23.758 23.758 0 01-5.815-4.949 30.267 30.267 0 01-4.133-6.625 41.388 41.388 0 01-3.66-15.583 44.82 44.82 0 01.415-8.25c.172-1.384.44-2.742.68-4.115s.48-2.753.752-4.129q1.57-8.276 3.359-16.743c5.525-26.224 11.253-50.89 16.317-72.384l-.006.037a45.8 45.8 0 012.4-10.052 39.174 39.174 0 014.393-8.837 29.548 29.548 0 0113.912-11.433l27.227-11.268-.016.007 16.2-8.8 4.282-2.3 1.1-.58c.251-.125.382-.182.382-.182zm69.062 90.895h25.858v8.062h-25.858zm121.493 14.833l-86.039 91.774-83.916.516-1.989-3.812 82.713-89.623z"/><path class="a" d="M472.252 298.366s5.591-.038 7.244 1.949c1.943 2.333 5.643 7.575-2.459 20.945-3.236 5.343-19.108 23.794-25.636 42.612-6.1 17.6-3.318 23.415-3.318 23.415l60.547-1.888 1.18-2.188s26.324-71.319 19.348-84.848c-3.21-6.221-57.335-2.281-56.906.003z"/><path class="j" d="M518.691 383.547l-65.137.542c-.776-16.5 4.948-28.471 13.467-42.626 3.262-5.422 7.714-10.056 10.963-15.486a41.831 41.831 0 005.83-18.83c.162-2.645 0-5.509-1.627-7.6s-7.43-2.209-9.936-1.183a18.968 18.968 0 019.586-3.535c5.266-.439 48.316-.144 56.331-.085a25.718 25.718 0 015.713.928c5.835 3.026 7.035 10.977 6.21 16.7-.783 5.429-4.143 10.539-8.366 16.257a54.478 54.478 0 00-3.357 5.116c-4.447 7.706-16.72 29.309-18.926 36.764a34.185 34.185 0 00-.751 13.038z"/><path class="d" d="M518.686 383.406l-15.687.13-29.957.25-12.573.105-4.213.034a10.035 10.035 0 01-2.351.02c-.06-.016-.312.049-.355 0-.01-.01.09-1.208.087-1.346q-.02-.852-.016-1.7 0-1.663.105-3.321a56.585 56.585 0 012.2-12.516c2.411-8.216 6.567-15.791 10.955-23.1 2.41-4.011 5.394-7.6 8.155-11.36a47.13 47.13 0 006.4-11.534 40.482 40.482 0 002.556-12.809c.077-2.811-.331-6.654-3.283-7.912a11.276 11.276 0 00-4.242-.75c-.968-.012-3.2-.117-4.021.542-.233.187-.109.251.059.208a1.918 1.918 0 00.385-.27c.442-.3.9-.574 1.372-.828a19.519 19.519 0 015.03-1.885c3.507-.787 7.308-.557 10.878-.587 11.163-.1 22.33-.036 33.493.02q6.445.032 12.887.078a30.519 30.519 0 016.039.578c3.411.712 5.637 4.136 6.645 7.249a21.373 21.373 0 01.572 10.485c-.859 4.425-3.291 8.389-5.82 12.047-2.286 3.306-4.629 6.495-6.633 9.986q-2.085 3.635-4.131 7.29c-3.27 5.845-6.489 11.727-9.471 17.725-2.564 5.155-5.048 10.248-5.439 16.087a33.692 33.692 0 00.239 7.264c.027.18.3.1.273-.075a31.2 31.2 0 012.428-17.324c2.554-5.827 5.589-11.452 8.628-17.037q4.152-7.633 8.506-15.157c4.223-7.3 11.013-13.66 11.946-22.447.583-5.484-.683-13.524-6.449-16.024a17.018 17.018 0 00-6.231-.921q-2.35-.02-4.7-.032-16.45-.107-32.9-.115c-4.726 0-9.454.009-14.18.1-4.3.078-8.4.5-12.219 2.72a12.444 12.444 0 00-1.5 1c-.109.087.009.285.137.236a12.317 12.317 0 017.749-.1c3.428 1.121 3.8 5.2 3.659 8.307a41.668 41.668 0 01-6.9 20.891c-2.016 3.065-4.346 5.9-6.53 8.845a90.409 90.409 0 00-5.622 8.762 97.781 97.781 0 00-8.2 17.277 58.938 58.938 0 00-3.038 21.609.143.143 0 00.141.141l22.011-.183 35.079-.292 8.047-.067a.147.147 0 000-.294z"/><path class="d" d="M514.841 369.946c0 .163-11.487.3-25.655.3s-25.656-.132-25.656-.3 11.484-.294 25.656-.294 25.655.132 25.655.294zm1.439-8.578c0 .163-11.488.3-25.655.3s-25.657-.132-25.657-.3 11.486-.294 25.657-.294 25.655.132 25.655.294zm6.895-9.21c0 .163-11.487.3-25.654.3s-25.657-.132-25.657-.3 11.484-.294 25.657-.294 25.654.132 25.654.294zm4.252-8.412c0 .162-11.488.294-25.655.294s-25.657-.132-25.657-.294 11.486-.3 25.657-.3 25.655.137 25.655.3zm2.828-7.695c0 .162-11.488.294-25.655.294s-25.657-.132-25.657-.294 11.484-.3 25.657-.3 25.655.137 25.655.3zm6.918-10.109c0 .163-11.487.294-25.654.294s-25.657-.131-25.657-.294 11.485-.294 25.657-.294 25.654.131 25.654.294zm6.607-9.675c0 .163-11.487.3-25.654.3s-25.657-.132-25.657-.3 11.484-.294 25.657-.294 25.654.13 25.654.294zm-.473-9.202c0 .163-11.487.294-25.654.294s-25.657-.131-25.657-.294 11.485-.294 25.657-.294 25.654.131 25.654.294z"/><path class="m" d="M464.336 298.366a2.186 2.186 0 01.356.253l1.011.8 3.9 3.173.1.085-.093.1c-7.008 7.657-22.184 24.027-39.8 42.909-12.159 13.319-23.863 24.728-32.331 32.956-4.241 4.112-7.7 7.413-10.1 9.681l-2.778 2.6-.733.664a1.45 1.45 0 01-.265.212 1.55 1.55 0 01.223-.255l.694-.706 2.7-2.678 9.968-9.815c8.4-8.309 20.035-19.743 32.192-33.06 17.61-18.882 32.886-35.158 40.038-42.682l.011.187-3.819-3.268-.97-.852a2.05 2.05 0 01-.304-.304z"/><path class="n" d="M390.541 348.876l12.278-.006s8.3-7.235 10.193-7.8c3.948-1.179 14.15-2.423 14.15-2.423l-6.967 7.55c-1.61 1.744-4.579 3.318-2.818 3.318h12.773s13.072-6.272 15.014-5.124c1.631.963 2.2 2.7.529 5.124s-13.121 8.148-14.443 8.588l-3.743 1.1 3.524 1.1 16.658-5.82c1.081-.193 2.575-.372 3.062.255a2.225 2.225 0 01-.087 3.221 70.442 70.442 0 01-7.538 5.925s2.66 3.907.457 5.889-8.588 7.928-8.588 7.928-.661 3.3-2.643 4.845-23.785 1.541-25.327 1.541-10.35-5.065-10.35-5.065l-9.565-.7z"/><path class="o" d="M428.523 370.187a6.786 6.786 0 002.385.321 7.291 7.291 0 002.606-.457 14.67 14.67 0 002.838-1.511 190.219 190.219 0 004.788-3.206 11.02 11.02 0 001.9-1.454 11.194 11.194 0 00-2.1 1.152c-1.26.765-2.983 1.854-4.868 3.079a16.277 16.277 0 01-2.729 1.5 7.64 7.64 0 01-2.449.535c-1.446.066-2.364-.046-2.371.041zm-1 8.157a2.675 2.675 0 001.656.928 6.139 6.139 0 004.495-.755 18.5 18.5 0 003.649-2.716 5.685 5.685 0 001.242-1.413 60.246 60.246 0 01-5.137 3.681 6.313 6.313 0 01-4.175.85 10.207 10.207 0 01-1.73-.575zm-6.174-18.046a13.758 13.758 0 006.726-1.389 78.456 78.456 0 00-6.726 1.389z"/><path class="q" d="M338.009 115.297a24.818 24.818 0 00-34.088-9.318c-4.882 2.83-8.941 7.943-8.613 13.577.308 5.311 4.266 9.6 7.995 13.394-5.94 2.475-8.918 10.007-6.976 16.143s8.076 10.458 14.485 11.052 12.86-2.2 17.484-6.673 7.547-10.491 9.145-16.726"/><path class="d" d="M317.69 129.009a10.4 10.4 0 01-3.259.822 15.272 15.272 0 01-8.913-1.855 15.579 15.579 0 01-4.883-4.079 15.1 15.1 0 01-2.967-6.67 18.1 18.1 0 014.666-15.589 20.268 20.268 0 0115.273-5.889 18.583 18.583 0 0112.42 5.122 12.428 12.428 0 013.668 8.282 9.635 9.635 0 01-.244 2.49 5.962 5.962 0 01-.178.626c-.046.139-.075.208-.085.206a13.962 13.962 0 00.277-3.311 12.381 12.381 0 00-3.732-8 18.292 18.292 0 00-12.146-4.873 19.831 19.831 0 00-14.83 5.756 17.644 17.644 0 00-4.557 15.083 14.691 14.691 0 002.819 6.466 15.827 15.827 0 0013.388 6.007 23.811 23.811 0 003.283-.594z"/><path class="m" d="M324.99 133.938c.019.035-.255.213-.772.506a14.158 14.158 0 01-2.293 1.023 19.261 19.261 0 01-3.622.906 20.538 20.538 0 01-9.07-.687 19.221 19.221 0 01-3.445-1.441 14.121 14.121 0 01-2.113-1.356c-.466-.367-.711-.584-.686-.617.063-.088 1.11.7 2.986 1.6a22.03 22.03 0 003.411 1.293 21.973 21.973 0 008.843.669 21.9 21.9 0 003.566-.764c1.992-.61 3.146-1.229 3.195-1.132zm-29.702-13.44a4.663 4.663 0 01.456-1.358 7.711 7.711 0 012.4-3.1 11.314 11.314 0 015.506-1.851 27.587 27.587 0 017.087.334 37.435 37.435 0 0112.118 4.181 33.519 33.519 0 013.287 2.086 6.23 6.23 0 011.1.91 7.222 7.222 0 01-1.23-.719 50.28 50.28 0 00-3.355-1.908 40.506 40.506 0 00-12.011-3.965 28.485 28.485 0 00-6.94-.376 11.241 11.241 0 00-5.316 1.648 8.056 8.056 0 00-2.436 2.861 11.272 11.272 0 01-.666 1.257zm34.552 22.697c.017.01-.041.141-.167.381s-.329.587-.61 1.022a18.335 18.335 0 01-2.851 3.322 19.146 19.146 0 01-13.262 5.087 18.774 18.774 0 01-7.777-1.709 14.386 14.386 0 01-5.121-4.011 9.561 9.561 0 01-1.895-3.953 6.108 6.108 0 01-.141-1.187c-.008-.273 0-.415.018-.416.068-.006.074.57.346 1.549a10.028 10.028 0 002 3.747 14.439 14.439 0 005.026 3.781 18.766 18.766 0 007.553 1.611 19.419 19.419 0 007.591-1.458 19.886 19.886 0 005.387-3.351 28.131 28.131 0 003.903-4.415z"/><path class="m" d="M331.993 149.081a9.9 9.9 0 01-1.236 1.5 58.382 58.382 0 01-3.742 3.764 46.706 46.706 0 01-2.8 2.382 19.62 19.62 0 01-3.549 2.324 19.254 19.254 0 01-9.479 1.843 16.07 16.07 0 01-9.112-3.147 16.507 16.507 0 01-4.791-6.275 14.484 14.484 0 01-1.251-5.173 8.247 8.247 0 01.035-1.449 1.66 1.66 0 01.078-.5 1.648 1.648 0 01.041.5 11.861 11.861 0 00.075 1.428 15.4 15.4 0 001.4 5.019 16.5 16.5 0 004.745 6.017 15.75 15.75 0 008.811 2.988 19.059 19.059 0 009.208-1.743 19.633 19.633 0 003.488-2.222 52.484 52.484 0 002.816-2.307 86.093 86.093 0 003.855-3.611 16.11 16.11 0 011.408-1.338z"/><path class="g" d="M341.509 114.625l1.653 1.3c-.668-2.813-3.808-4.587-6.684-4.283a9.706 9.706 0 00-6.892 4.76 23.385 23.385 0 00-2.766 8.165c-.888 4.745-1.327 9.814.562 14.254s6.768 7.929 11.452 6.763c4.661-1.161 7.274-6.234 7.966-10.988a26.644 26.644 0 00-5.291-19.971z"/><path class="d" d="M335.027 136.132a7.123 7.123 0 01-4.475.973 9.462 9.462 0 01-3.2-.706c-.833-.333-1.074-.95-.977-.966a3.966 3.966 0 001.123.576 13.867 13.867 0 003.084.508 31.373 31.373 0 004.445-.385zm2.296-8.385a50.071 50.071 0 01-10.835-.343 50.071 50.071 0 0110.835.342zm-1.809-8.972c-.023.195-1.678-.048-3.644-.225a8.745 8.745 0 00-2.485.138c-.623.137-1 .3-1.048.218-.037-.059.279-.36.927-.617a6.163 6.163 0 012.645-.328 9.579 9.579 0 013.605.814z"/><path class="q" d="M347.008 96.084c-.136-4.74 4.249-8.4 8.661-10.138s9.316-2.39 13.249-5.038c3.483-2.344 5.824-6 8.772-8.989a29.186 29.186 0 0149.085 13.391c1.695 6.75.538 14.73-4.783 19.217-6.174 5.2-15.33 4.049-23.243 2.43s-16.868-3.216-23.475 1.43c-3.984 2.8-6.267 7.36-8.7 11.58s-5.492 8.525-10.1 10.111-10.86-1.153-11.039-6.021"/><path class="q" d="M347.328 98.687c.523 3.972-2.353 7.529-5.214 10.334s-6.1 5.778-6.6 9.754c-.589 4.643 2.8 9.215 1.817 13.791-.625 2.9-2.883 5.142-4.253 7.779a16.526 16.526 0 00-.843 12.179c1.179 4 3.059 12.936 5.84 16.045 7.691 8.6 19.936 16.017 31.179 18.6s22.919 2.6 34.433 1.889c9.426-.579 20.265-.146 28.12-13.114 4.068-6.715 6.083-15.645 8.245-23.194 1.862-6.5 3.472-13.459 1.536-19.937-1.127-3.774-3.4-7.129-4.509-10.909-1.389-4.721-.884-9.77-1.442-14.659a33.631 33.631 0 00-47.849-26.555"/><path class="n" d="M363.352 206.603l.059.416zm67.774-91.629c-.882-13.525-9.882-30.1-23.358-28.648l-42.066 10.731a7.932 7.932 0 00-7.078 8.06l4.625 99.241a13.283 13.283 0 001.169 4.886c3.126 6.889 13.505 24.39 36.049 17.3 5.515-1.734 8.034-7.767 9.127-13.973.01-.738.3-1.386.314-2.089a66.483 66.483 0 00.165-13.936c.078-8.194.07-11.555.075-11.478 0 0 17.277-2.909 20.807-25.466 1.754-11.215 1.151-29.6.171-44.628zm-67.716 92.045c.011.078.009.065 0 0z"/><path class="d" d="M424.352 129.629a2.893 2.893 0 01-2.783 2.924 2.767 2.767 0 01-2.987-2.6 2.893 2.893 0 012.78-2.925 2.768 2.768 0 012.99 2.601zm2.805-5.081c-.357.378-2.552-1.239-5.664-1.224-3.109-.029-5.389 1.577-5.728 1.2-.166-.169.2-.85 1.19-1.576a7.933 7.933 0 014.584-1.424 7.609 7.609 0 014.509 1.445c.96.728 1.286 1.41 1.109 1.579zm-33.648 5.081a2.893 2.893 0 01-2.782 2.924 2.766 2.766 0 01-2.987-2.6 2.892 2.892 0 012.778-2.925 2.768 2.768 0 012.991 2.601zm3.063-4.433c-.359.378-2.556-1.238-5.665-1.223-3.109-.029-5.389 1.576-5.728 1.2-.166-.169.194-.85 1.191-1.576a7.927 7.927 0 014.583-1.424 7.629 7.629 0 014.51 1.445c.955.728 1.282 1.41 1.109 1.578zm11.344 23.055c-.015-.178 1.919-.516 5.052-.923.794-.085 1.546-.244 1.679-.786a4.05 4.05 0 00-.535-2.354q-1.128-2.881-2.364-6.046c-3.282-8.608-5.66-15.687-5.312-15.816s3.291 6.743 6.574 15.351l2.264 6.082a4.6 4.6 0 01.42 3.118 1.993 1.993 0 01-1.3 1.165 5.379 5.379 0 01-1.348.19c-3.162.178-5.119.196-5.13.019z"/><path class="o" d="M410.146 185.071a57.369 57.369 0 01-30.217-7.989s7.628 15.592 30.192 13.433zm-3.53-29.318a5.607 5.607 0 00-5.032-2.071 5.117 5.117 0 00-3.531 1.9 3.244 3.244 0 00-.239 3.709 3.763 3.763 0 004.083 1.023 11.783 11.783 0 003.972-2.382 3.449 3.449 0 00.887-.922 1.041 1.041 0 00-.008-1.158"/><path class="d" d="M398.762 150.422c.506-.031.519 3.347 3.416 5.739s6.491 2.011 6.518 2.483c.047.213-.8.658-2.32.7a8.4 8.4 0 01-5.441-1.881 7.329 7.329 0 01-2.648-4.812c-.131-1.41.243-2.247.475-2.229zm-.805-30.678c-.3.847-3.413.453-7.062.9-3.66.376-6.6 1.45-7.087.692-.217-.362.294-1.16 1.483-1.981a12.378 12.378 0 0110.78-1.214c1.341.539 2.018 1.202 1.886 1.603zm28.037-4.199c-.546.708-2.691-.02-5.269-.05-2.576-.119-4.759.485-5.264-.252-.221-.359.121-1.068 1.074-1.739a7.632 7.632 0 018.487.243c.912.728 1.213 1.451.972 1.798z"/><path class="q" d="M349.955 171.245a20.023 20.023 0 0023.821-22.143c-.7-5.538-3.687-11.172-1.767-16.415 2.539-6.93 12.254-9.063 14.832-15.978 1.5-4.019.153-8.721 1.852-12.66 1.6-3.7 5.493-5.837 9.286-7.21s7.861-2.318 11.046-4.793 5.171-7.147 3.117-10.619a213.661 213.661 0 00-49.274 11.972c-3.68 1.374-7.546 3.026-9.721 6.3-2.3 3.461-2.192 7.934-2 12.085l2.835 60.742"/><path class="m" d="M351.37 178.998c-.011.014-.135-.067-.364-.233l-1-.764a81.462 81.462 0 01-3.735-3.094 39.833 39.833 0 01-5.3-5.579 20.8 20.8 0 01-4.216-9.282 14.119 14.119 0 012.907-11.866 45.676 45.676 0 015.255-4.48 12.257 12.257 0 004.1-5.59c1.667-4.6.924-9.92 1.569-15.359a30.574 30.574 0 016.393-15.538 21.085 21.085 0 016.687-5.465 41.251 41.251 0 017.89-2.663 18.366 18.366 0 006.924-3.412 27.243 27.243 0 005.027-5.543c2.831-4.023 4.927-8.309 7.625-11.884a25.793 25.793 0 014.444-4.717 16.944 16.944 0 015.268-2.869c3.638-1.242 7.481-.832 10.015 1a9.226 9.226 0 013.557 6.75 6.727 6.727 0 01-1.356 4.644 4.2 4.2 0 01-.92.881c-.23.172-.35.252-.36.239s.09-.122.294-.317a4.891 4.891 0 00.826-.923 6.687 6.687 0 001.131-4.5 8.864 8.864 0 00-3.5-6.326c-2.379-1.656-6.008-2.014-9.469-.785a16.358 16.358 0 00-5.012 2.8 25.19 25.19 0 00-4.264 4.612c-2.614 3.516-4.668 7.792-7.539 11.921a28.019 28.019 0 01-5.178 5.752 19.306 19.306 0 01-7.246 3.606 40.824 40.824 0 00-7.714 2.61 20.158 20.158 0 00-6.372 5.218 29.728 29.728 0 00-6.194 15.028c-.656 5.258.1 10.661-1.675 15.551a13.142 13.142 0 01-4.4 5.948 45.856 45.856 0 00-5.2 4.356c-2.894 3.221-3.437 7.619-2.829 11.2a20.4 20.4 0 003.968 9.063 41.511 41.511 0 005.118 5.627c1.533 1.431 2.773 2.493 3.6 3.225a11.278 11.278 0 011.245 1.158z"/><path class="d" d="M442.889 143.744a5.444 5.444 0 001.318-2.161 8.325 8.325 0 00-1.288-6.62c-.783-1.256-1.835-2.5-2.9-3.914a13.692 13.692 0 01-2.6-5.045 17.78 17.78 0 01-.251-6.263c.235-2.156.671-4.346.952-6.6a25.7 25.7 0 00-1.474-12.508 28.029 28.029 0 00-5.389-8.839 26.108 26.108 0 00-5.357-4.532c-1.4-.893-2.241-1.3-2.213-1.352a2.9 2.9 0 01.621.26 15.429 15.429 0 011.712.9 24.39 24.39 0 015.543 4.444 27.793 27.793 0 015.59 8.928 25.885 25.885 0 011.552 12.774c-.285 2.279-.724 4.464-.963 6.586a17.4 17.4 0 00.2 6.069 13.316 13.316 0 002.464 4.885c1.035 1.406 2.083 2.686 2.862 3.985a8.433 8.433 0 011.153 6.91 4.38 4.38 0 01-1.008 1.666 2.241 2.241 0 01-.524.427zm205.04 261.773c-214.43 0-387.594.133-387.594.294s173.164.294 387.594.3z"/><path class="b" d="M540.693 338.907h96.762v110.859h-96.762z"/><path class="d" d="M637.454 449.766s-.009-.184-.015-.533-.008-.874-.015-1.546l-.03-5.995-.069-22.633-.131-80.152.26.26-96.752.034h-.009l.294-.294-.046 110.859-.248-.249 70.154.128 19.632.064 5.181.029c1.176.009 1.794.027 1.794.027s-.583.018-1.74.027l-5.133.029-19.577.065-70.311.128h-.249v-.249l-.045-110.859v-.3h.3l96.752.034h.261v.26l-.131 80.32-.068 22.574-.03 5.943-.015 1.518a9.986 9.986 0 01-.014.511z"/><path class="r" d="M560.506 378.115c1.19-1.782 1.962-9.136 3.506-8.724 1.968.526-.8 8.336-.989 9.049-.186.694.839.99.979.337.2-.938 2.4-10.112 4.324-9.41 1.066.389.38 2.335.38 2.335s-3.12 8.923-2.2 9.224 2.714-4.911 3.306-6.755c.568-1.769 1.517-2.272 2.173-1.445.7.884-.993 6.166-1.534 7.947s-2.111 6.642.624 4.823 5.508-2.212 6.323-1.805.511 1.686-.492 1.853a12.33 12.33 0 00-3.049 1.291 11.76 11.76 0 00-2.093 1.633 10.219 10.219 0 00-2.082 2.67 6.367 6.367 0 01-4.19 3.109l-.823 3.358-9.351-3.48 1.557-6.354a62.29 62.29 0 001.568-11.323c.451-4.794 1.079-4.772 1.62-4.594 1.19.392-.718 8 .443 6.261z"/><path class="s" d="M558.799 384.299a10.577 10.577 0 011.226.691 5.281 5.281 0 011.937 2.678 5.146 5.146 0 01.2 1l.017.162.144-.067a8.215 8.215 0 012.582-.69c.67-.066 1.077-.043 1.079-.076a3.306 3.306 0 00-1.09-.071 7.383 7.383 0 00-2.664.629l.161.1a5.041 5.041 0 00-.2-1.058 5.225 5.225 0 00-.906-1.692 5.118 5.118 0 00-1.162-1.052 4.405 4.405 0 00-.942-.468 1.217 1.217 0 00-.382-.086zm-.528 7.104a8.51 8.51 0 004.579 1.9c.014-.069-1.08-.3-2.342-.826s-2.197-1.132-2.237-1.074z"/><path class="g" d="M555.547 438.316a10.175 10.175 0 005.588-2.356l15.088-12.758-.135 14.705-2.989.214.84 10.928h46.712l.018-.259a16.551 16.551 0 005.269-10.16c1.136-7.275 1.559-19.139 2.575-27.521.714-5.9-.586-13.54-5.834-16.327l-4.061-1.6-12.765-5.027-16.4.755-10.95 3.071c-3.036 1.155-5.655 4.791-7.521 7.473l-9.125 12.694c.1-2.071 3.875-14.584 4.124-15.146l-11.169-4.6s-11.508 25.577-9.957 36.624c1.297 9.191 10.692 9.29 10.692 9.29z"/><path class="d" d="M611.198 350.469a11.227 11.227 0 013.084 11.1l-.024.084a38.427 38.427 0 01-6.807 13.3c-.275.348-.709.73-1.1.527a.969.969 0 01-.39-.793 32.134 32.134 0 01.4-7.818 19.428 19.428 0 00-.226-7.792c-.739-2.51-2.6-4.841-5.153-5.435a8.293 8.293 0 00-5.588 1c-1.717.889-3.24 2.1-4.881 3.126a10.662 10.662 0 01-5.405 1.888 5.063 5.063 0 01-4.735-2.739c-.764-1.775.243-4.228 2.147-4.565-1.73-.218-2.638-1.9-2.757-3.639 0 0 .111-2.946 4.381-2.745 0 0 .571-4.43 4.863-2.821 3.854 1.445 4.364 2.587 10.436 1.231 0 0 8.188-1.989 10.691 5.066z"/><path class="r" d="M610.174 362.31l-3.786 29.1a8.731 8.731 0 01-10.208 7.464 8.734 8.734 0 01-7.1-9.73c.287-2.19.523-4.017.537-4.245 0 0-7.317-1.661-6.9-9.062.2-3.577 1.22-10.91 2.217-17.533a13.808 13.808 0 0114.609-11.712l.713.049c7.661.979 11.109 8.035 9.918 15.669z"/><path class="s" d="M589.609 384.792a17.236 17.236 0 009.829-2.075s-2.646 5.165-9.979 3.99z"/><path class="d" d="M585.861 363.814c.122.146.963-.39 2.1-.309 1.136.065 1.929.707 2.062.577.064-.058-.052-.316-.4-.605a2.906 2.906 0 00-1.64-.632 2.8 2.8 0 00-1.682.419c-.361.242-.497.483-.44.55zm10.958.629c.122.147.964-.389 2.1-.308 1.136.064 1.929.707 2.062.577.065-.058-.05-.316-.4-.605a2.9 2.9 0 00-1.639-.632 2.8 2.8 0 00-1.682.418c-.365.243-.501.484-.441.55zm-4.099 6.726a7.494 7.494 0 00-1.822-.46c-.289-.05-.559-.127-.594-.328a1.479 1.479 0 01.253-.847l1.01-2.151a38.03 38.03 0 002.327-5.647 38.223 38.223 0 00-2.776 5.447l-.975 2.166a1.688 1.688 0 00-.23 1.129.734.734 0 00.448.457 1.972 1.972 0 00.489.1 7.411 7.411 0 001.87.134zm3.291 1.016c-.185-.024-.271 1.209-1.388 2.013s-2.42.576-2.441.748c-.023.077.276.26.831.313a3.075 3.075 0 002.033-.554 2.685 2.685 0 001.085-1.693c.081-.514-.036-.828-.12-.827zm1.43-13.633c.09.316 1.235.248 2.558.5 1.327.226 2.376.69 2.571.425.088-.127-.079-.431-.493-.76a4.535 4.535 0 00-3.907-.706c-.504.164-.765.39-.729.541zm-10.444.229c.182.273.984.059 1.926.111.943.019 1.726.293 1.929.036.089-.125-.018-.393-.351-.661a2.79 2.79 0 00-3.11-.118c-.346.242-.474.5-.394.632z"/><path class="r" d="M609.193 367.744c.129-.046 5.185-1.153 4.674 3.892s-5.471 3.492-5.464 3.346.79-7.238.79-7.238z"/><path class="s" d="M610.137 373.228c.023-.015.081.07.223.153a.879.879 0 00.656.08 2.187 2.187 0 001.2-1.85 2.929 2.929 0 00-.119-1.283 1.018 1.018 0 00-.593-.741.448.448 0 00-.543.188c-.083.135-.06.239-.088.244s-.1-.095-.037-.3a.569.569 0 01.23-.3.671.671 0 01.5-.079 1.244 1.244 0 01.839.876 3.015 3.015 0 01.163 1.437 2.293 2.293 0 01-1.5 2.049.946.946 0 01-.79-.215c-.145-.137-.16-.253-.141-.259z"/><path class="d" d="M583.472 356.659a10.708 10.708 0 009.636-1.482c1.905-1.4 3.444-3.5 5.746-4.036a6.019 6.019 0 014.551.946 11.636 11.636 0 013.261 3.44c-1.689 3.66-1.018 7.921-.315 11.89a2.01 2.01 0 00.508 1.207 1.61 1.61 0 002.045-.305 6.259 6.259 0 001.6-3.2 20.868 20.868 0 00.517-8.2 14.187 14.187 0 00-3.4-7.415 13.444 13.444 0 00-9.163-4.2 16.508 16.508 0 00-9.79 2.757 9.673 9.673 0 00-3.352 3.362"/><path class="s" d="M600.87 368.124a.138.138 0 10-.086-.165.132.132 0 00.086.165zm-2.139-.648a.162.162 0 10-.079-.186.145.145 0 00.079.186zm-1.456-.137c.068.014.141-.067.163-.178s-.016-.213-.084-.225-.141.066-.163.177.013.212.084.226zm2.433 2.069c.069.006.128-.027.13-.071s-.05-.084-.119-.088-.128.027-.131.071.051.083.12.088zm-1.959-.601a.134.134 0 00.146-.121.126.126 0 10-.248-.039.133.133 0 00.102.16zm-10.279-1.951a.136.136 0 00.158-.1.126.126 0 10-.242-.067.136.136 0 00.084.167zm-1.469-.238a.162.162 0 10-.1-.178.146.146 0 00.1.178zm2.773.365a.111.111 0 10-.092-.14.119.119 0 00.092.14zm-1.199 1.403a.147.147 0 10-.043-.187.137.137 0 00.043.187zm-1.247-.339a.108.108 0 10-.144-.079.117.117 0 00.144.079z"/><path class="m" d="M594.223 350.916a4.539 4.539 0 01-1.81 1.8 7.571 7.571 0 01-10.858-2.814 4.532 4.532 0 01-.707-2.454 24.12 24.12 0 001.067 2.245 7.54 7.54 0 0010.285 2.664 23.981 23.981 0 002.023-1.441zm16.021 1.287a6.117 6.117 0 00-2.249-2.566 7.143 7.143 0 00-3.535-1.027 17.765 17.765 0 00-4.591.545 34.846 34.846 0 01-4.67.856 9.335 9.335 0 01-3.9-.414 5.947 5.947 0 01-2.269-1.355c-.444-.446-.6-.758-.578-.776a7.683 7.683 0 002.974 1.734 9.513 9.513 0 003.721.271 40.525 40.525 0 004.592-.892 17.044 17.044 0 014.748-.511 7.261 7.261 0 013.733 1.221 5.1 5.1 0 011.757 1.982 1.88 1.88 0 01.267.932zm2.391 6.124a5.48 5.48 0 01-5.966-2.878 10.706 10.706 0 005.966 2.878zm-.622 3.344c-.021.077-.433.051-1.086-.08a7.809 7.809 0 01-2.466-.925 4.409 4.409 0 01-1.793-1.989c-.267-.653-.211-1.1-.141-1.1.09-.014.185.385.514.915a5.2 5.2 0 001.727 1.674 13.583 13.583 0 002.275 1.027c.61.228.992.398.97.478z"/><path class="d" d="M576.231 437.927c-.066 0-.118-7.458-.118-16.657s.052-16.659.118-16.659.118 7.457.118 16.659-.051 16.657-.118 16.657zm46.51-39.656a19.888 19.888 0 00-2.22-.044 10.161 10.161 0 00-8.5 5.628 19.434 19.434 0 00-.827 2.062 2.49 2.49 0 01.112-.592 8.986 8.986 0 01.564-1.544 9.915 9.915 0 018.642-5.721 8.9 8.9 0 011.641.084 2.6 2.6 0 01.588.127zm-60.959 12.265a4.839 4.839 0 01-.047.7 18.719 18.719 0 00-.05 1.908c.009 1.614.349 3.826.466 6.3a12.318 12.318 0 01-1.162 6.2 6.509 6.509 0 01-1.135 1.559 3.963 3.963 0 01-.538.459 8.9 8.9 0 001.524-2.1 12.727 12.727 0 001.075-6.113c-.115-2.456-.431-4.683-.4-6.312a13.925 13.925 0 01.126-1.92c.026-.225.068-.4.089-.515a.514.514 0 01.052-.166z"/><path class="r" d="M573.223 439.525l.859 9.511-4.491-.018c-.119 0-1.952-.029-3.973-.064a27.883 27.883 0 01-4.559.122c-.127-.014-.2-.029-.212-.048a3.67 3.67 0 01-.692-.167h-.02v-.007c-.407-.148-.825-.409-.76-.856.2-1.364 1.007-1.474 1.007-1.474l.407-.028.033-.118a16.09 16.09 0 01-1.41-.045c-.127-.014-.2-.029-.211-.048 0 0-1.593-.189-1.471-1.031.2-1.364 1.007-1.474 1.007-1.474s.551-.038 1.311-.087c-.637 0-1.175-.015-1.457-.044-.127-.014-.2-.029-.212-.047 0 0-1.592-.189-1.471-1.032.2-1.363 1.008-1.473 1.008-1.473s.443-.032 1.083-.074c-.514 0-.941-.018-1.181-.044-.127-.014-.2-.03-.212-.048 0 0-1.592-.189-1.471-1.031.2-1.364 1.008-1.473 1.008-1.473s2.5-.179 4.225-.25c0 0 1.952-1.76 2.72-1.679 1.148.121 7.827 2.586 7.827 2.586z"/><path class="s" d="M564.796 446.243a8.932 8.932 0 01-2.226.214 8.579 8.579 0 01-2.2-.07 8.96 8.96 0 012.226-.215 8.6 8.6 0 012.2.071zm.015-2.695a35.062 35.062 0 01-6.34.224 17.679 17.679 0 013.165-.256 17.459 17.459 0 013.175.032z"/><path class="s" d="M564.585 440.808a35.236 35.236 0 01-6.341.225 34.923 34.923 0 016.341-.225z" opacity=".78"/><path class="s" d="M560.655 438.233a4.586 4.586 0 001.009.079l2.432.079 2.432.088a4.625 4.625 0 001.013-.01 4.168 4.168 0 00-1-.155c-.622-.063-1.483-.124-2.436-.157s-1.816-.031-2.44-.01a4.134 4.134 0 00-1.01.086z"/><path class="d" d="M573.101 438.121a.771.771 0 00.157 0l.456-.023 1.753-.1 6.45-.4c5.445-.331 12.966-.805 21.279-1.226l4.453-.2h.106v-.111c.07-1.8.237-3.571.368-5.26s.283-3.313.415-4.854l.719-8.117.475-5.4.119-1.455.025-.378a.583.583 0 000-.129.606.606 0 00-.024.127c-.011.1-.027.219-.046.376-.037.345-.092.83-.159 1.451l-.544 5.393c-.218 2.3-.478 5.039-.772 8.112-.137 1.541-.28 3.163-.432 4.854-.136 1.694-.306 3.446-.378 5.279l.112-.115-4.456.2c-8.313.422-15.834.922-21.278 1.3l-6.443.471-1.751.146-.456.045a.84.84 0 00-.148.014z"/></svg>