<svg xmlns="http://www.w3.org/2000/svg" width="173.742" height="135.727"><defs><style>.c{fill:#462847}.e{fill:#585858}</style></defs><path d="M14.548 78.135c0-.568 0-11.651 1.421-11.651s10.656 1.7 10.656 1.7v45.467s-8.951 1.421-9.377 1.136-1.989-8.667-2.7-8.383-8.951 3.41-10.8.71-1.137-34.1-1.137-34.1l10.088-.852 1.847 6.82zm75.305-9.804c-.426-.71 9.52-1.989 9.946-.995a61.183 61.183 0 011.279 6.252l8.241-.568a9 9 0 013.268 8.525c-.71 5.825-.71 25.717-1.421 25.859s-10.088.852-10.088.852.284 5.683-1.279 5.825-12.219-.852-12.219-.852V67.341z" fill="#bbcffe"/><path d="M29.469 81.688h56.265l1.989 3.978v12.077h-60.67V81.688z" fill="#ffeb9e"/><path class="c" d="M73.201 68.729a2.507 2.507 0 01-2.4-1.777l-7.615-25.014H40.379a2.507 2.507 0 110-5.014h24.665a2.507 2.507 0 012.4 1.777l5.757 18.914 8.41-27.622a2.506 2.506 0 014.8 0l3.639 11.954h22.046a2.507 2.507 0 010 5.014h-23.9a2.506 2.506 0 01-2.4-1.776l-1.782-5.855-8.41 27.622a2.5 2.5 0 01-2.4 1.777zm0 0"/><path class="c" d="M165.975 21.1a2.507 2.507 0 10-4.367 2.462 36.077 36.077 0 014.641 17.62c.031 16.428-9.409 34.7-28.056 54.32a252.471 252.471 0 01-38.837 32.667 3.221 3.221 0 01-3.646 0 259.026 259.026 0 01-33.948-27.707h23.389v10.158A5.855 5.855 0 0091 116.467h5.46a5.856 5.856 0 005.85-5.849v-.212a5.864 5.864 0 00.835.067h5.46a5.855 5.855 0 005.849-5.849V76.017a5.855 5.855 0 00-5.849-5.849h-5.46a5.682 5.682 0 00-.835.068v-.213a5.856 5.856 0 00-5.85-5.849H91a5.855 5.855 0 00-5.849 5.849v9.911h-7.9a2.507 2.507 0 100 5.014h7.9v10.5H29.3v-10.5h36.611a2.507 2.507 0 100-5.014H43.828c-9.982-13.807-15.028-26.84-15.01-38.752A36.286 36.286 0 0165.065 5.013h.051A36.09 36.09 0 0193.344 18.6a5.374 5.374 0 008.381 0 36.094 36.094 0 0128.226-13.587H130a36.07 36.07 0 0124.873 9.938 2.506 2.506 0 103.444-3.642A41.053 41.053 0 00130 0h-.059a41.079 41.079 0 00-32.13 15.463.362.362 0 01-.559 0A41.088 41.088 0 0065.124 0h-.059A41.308 41.308 0 0023.8 41.173c-.022 12.122 4.652 25.144 13.9 38.761h-8.4v-9.912a5.855 5.855 0 00-5.848-5.849h-5.458a5.855 5.855 0 00-5.848 5.849v.213a5.868 5.868 0 00-.835-.067H5.849A5.855 5.855 0 000 76.017v28.606a5.855 5.855 0 005.848 5.848h5.462a5.871 5.871 0 00.835-.067v.213a5.855 5.855 0 005.848 5.849h5.462a5.855 5.855 0 005.848-5.849V100.46h25.388a260.069 260.069 0 0038.2 31.853 8.208 8.208 0 009.284 0 257.679 257.679 0 0039.651-33.36c19.566-20.581 29.47-40.022 29.437-57.782a41.112 41.112 0 00-5.288-20.071zm-62.831 54.082h5.462a.836.836 0 01.835.835v28.606a.837.837 0 01-.835.836h-5.462a.837.837 0 01-.835-.836V76.017a.836.836 0 01.835-.835zm-12.98-5.16a.836.836 0 01.836-.834h5.46a.837.837 0 01.836.835v40.6a.837.837 0 01-.836.835H91a.836.836 0 01-.835-.835zm-65.874 40.6a.837.837 0 01-.835.836h-5.462a.837.837 0 01-.835-.836V90.8a2.507 2.507 0 00-5.014 0v13.825a.837.837 0 01-.836.836h-5.46a.837.837 0 01-.835-.836V76.017a.836.836 0 01.835-.835h5.462a.836.836 0 01.835.835V79.1a2.507 2.507 0 005.014 0v-9.078a.837.837 0 01.836-.835h5.46a.836.836 0 01.835.835zm0 0"/><g opacity=".18"><path class="e" d="M75.68 70.704a2.507 2.507 0 01-2.4-1.777l-7.615-25.014H42.858a2.507 2.507 0 110-5.014h24.665a2.507 2.507 0 012.4 1.777L75.68 59.59l8.41-27.622a2.506 2.506 0 014.8 0l3.639 11.954h22.046a2.507 2.507 0 010 5.014h-23.9a2.506 2.506 0 01-2.4-1.776l-1.782-5.855-8.41 27.622a2.5 2.5 0 01-2.4 1.777zm0 0"/><path class="e" d="M168.454 23.075a2.507 2.507 0 10-4.367 2.462 36.077 36.077 0 014.641 17.62c.031 16.428-9.409 34.7-28.056 54.32a252.471 252.471 0 01-38.837 32.667 3.221 3.221 0 01-3.646 0 259.026 259.026 0 01-33.948-27.707H87.63v10.158a5.855 5.855 0 005.849 5.847h5.46a5.856 5.856 0 005.85-5.849v-.212a5.864 5.864 0 00.835.067h5.46a5.855 5.855 0 005.849-5.849V77.992a5.855 5.855 0 00-5.849-5.849h-5.46a5.682 5.682 0 00-.835.068v-.213a5.856 5.856 0 00-5.85-5.849h-5.46a5.855 5.855 0 00-5.849 5.849v9.911h-7.9a2.507 2.507 0 100 5.014h7.9v10.5H31.779v-10.5H68.39a2.507 2.507 0 100-5.014H46.307c-9.982-13.807-15.028-26.84-15.01-38.752A36.286 36.286 0 0167.544 6.988h.051a36.09 36.09 0 0128.228 13.587 5.374 5.374 0 008.381 0A36.094 36.094 0 01132.43 6.988h.049a36.07 36.07 0 0124.873 9.938 2.506 2.506 0 103.444-3.642 41.053 41.053 0 00-28.317-11.309h-.059a41.079 41.079 0 00-32.13 15.463.362.362 0 01-.559 0A41.088 41.088 0 0067.603 1.975h-.059a41.308 41.308 0 00-41.265 41.173c-.022 12.122 4.652 25.144 13.9 38.761h-8.4v-9.912a5.855 5.855 0 00-5.848-5.849h-5.458a5.855 5.855 0 00-5.848 5.849v.213a5.868 5.868 0 00-.835-.067H8.328a5.855 5.855 0 00-5.849 5.849v28.606a5.855 5.855 0 005.848 5.848h5.462a5.871 5.871 0 00.835-.067v.213a5.855 5.855 0 005.848 5.849h5.462a5.855 5.855 0 005.848-5.849v-10.157H57.17a260.069 260.069 0 0038.2 31.853 8.208 8.208 0 009.284 0 257.679 257.679 0 0039.651-33.36c19.566-20.581 29.47-40.022 29.437-57.782a41.112 41.112 0 00-5.288-20.071zm-62.831 54.082h5.462a.836.836 0 01.835.835v28.606a.837.837 0 01-.835.836h-5.462a.837.837 0 01-.835-.836V77.992a.836.836 0 01.835-.835zm-12.98-5.16a.836.836 0 01.836-.834h5.46a.837.837 0 01.836.835v40.6a.837.837 0 01-.836.835h-5.46a.836.836 0 01-.835-.835zm-65.874 40.6a.837.837 0 01-.835.836h-5.462a.837.837 0 01-.835-.836V92.775a2.507 2.507 0 00-5.014 0V106.6a.837.837 0 01-.836.836h-5.46a.837.837 0 01-.835-.836V77.992a.836.836 0 01.835-.835h5.462a.836.836 0 01.835.835v3.083a2.507 2.507 0 005.014 0v-9.078a.837.837 0 01.836-.835h5.46a.836.836 0 01.835.835zm0 0"/></g></svg>