<svg xmlns="http://www.w3.org/2000/svg" width="170.922" height="169.657"><defs><style>.c{fill:#462847}.e{fill:#585858}</style></defs><path d="M5 102.494c7.183 8.426 19.915 31.39 39.891 37.506a194.222 194.222 0 01-2.854 22.014 83.551 83.551 0 01-22.83-13.045C7.385 139.592-2.184 94.068 5 102.494zM125.713 67.56h32.472s2.227-5.01 1.856-7.979-7.608-7.237-9.278-6.865-3.9-4.824-3.9-4.824-4.268-6.866-5.01-6.866-6.865.557-6.865 3.526-.557 9.649-2.6 9.649-10.391 3.525-10.391 6.68 3.716 6.679 3.716 6.679z" fill="#bbcffe"/><path d="M11.589 85.882c8.2 11.338 6.513-3.377 6.513-3.377l10.373-8.2s-7.96-7.96-8.2-16.4 1.689-28.223 9.167-31.359 28.706-7.719 29.671-7 14.474 4.342 18.092 11.1 9.649 22.193 4.583 31.6-6.754 12.061-6.754 12.061l8.925 8.2 15.2-10.614s-1.206-34.5-1.206-35.46-11.579-23.64-21.71-27.741S56.463.973 40.3 5.074 15.213 15.929 9.182 26.543s-5.799 48.001 2.407 59.339z" fill="#ffeb9e"/><path class="c" d="M51.2 0A51.261 51.261 0 000 51.2v63.52a51.219 51.219 0 0075.39 45.141 3.241 3.241 0 00-3.066-5.71 44.839 44.839 0 01-25.74 5.054A77.481 77.481 0 0169.418 105.4l26.506-26.507v35.827a44.242 44.242 0 01-4.81 20.2 3.241 3.241 0 105.78 2.932 50.667 50.667 0 005.511-23.13V51.2A51.261 51.261 0 0051.2 0zM15.47 95.33a71.053 71.053 0 0035.5 23.745 85.137 85.137 0 00-7.844 19.011A63.1 63.1 0 016.481 81.081v-.342A70.278 70.278 0 0015.47 95.33zm-8.989 19.39v-4.369a69.407 69.407 0 0035.139 34.162 84.2 84.2 0 00-1.494 13.54A44.8 44.8 0 016.481 114.72zm58.354-13.9a84.429 84.429 0 00-10.321 12.516 63.882 63.882 0 01-36.309-25.027 41.772 41.772 0 0110.255-9.677 35.576 35.576 0 0045.479 0 41.214 41.214 0 017.113 5.968zM51.2 22.037a3.943 3.943 0 110 7.886 3.241 3.241 0 000 6.481 10.43 10.43 0 0010.213-12.52A29.166 29.166 0 1151.2 22.037zm44.724 47.712a4.839 4.839 0 00-.227.2l-10.056 10.06a47.672 47.672 0 00-7.03-6.039 35.647 35.647 0 10-54.815 0 48.363 48.363 0 00-9.246 8.522A64.268 64.268 0 016.481 51.2a44.721 44.721 0 1189.443 0z"/><path class="c" d="M51.202 69.365a8.823 8.823 0 006.258-2.588 3.241 3.241 0 10-4.583-4.583 2.37 2.37 0 01-3.35 0 3.241 3.241 0 10-4.583 4.583 8.824 8.824 0 006.258 2.588zM39.388 50.729a3.242 3.242 0 10-2.291-.949 3.25 3.25 0 002.291.949zm23.63 0a3.242 3.242 0 10-2.291-.949 3.265 3.265 0 002.291.949zm99.349 16.063a6.371 6.371 0 001.735-4.368v-3.32a9.733 9.733 0 00-9.722-9.722h-2.719v-3.085a9.765 9.765 0 00-9.371-9.871 9.722 9.722 0 00-10.073 9.716v3.241h-2.716a9.733 9.733 0 00-9.722 9.722v3.32a6.371 6.371 0 001.735 4.368 13.556 13.556 0 00-3.553 9.162v36.3a13.626 13.626 0 0013.611 13.611h20.74a13.626 13.626 0 0013.611-13.611v-36.3a13.556 13.556 0 00-3.556-9.163zm-36.1-7.688a3.244 3.244 0 013.241-3.241h2.816a6.388 6.388 0 006.381-6.381v-3.343a3.241 3.241 0 013.362-3.238 3.349 3.349 0 013.12 3.394v3.186a6.388 6.388 0 006.381 6.381h2.816a3.244 3.244 0 013.241 3.241v3.241h-31.364v-3.241zm33.178 53.147a7.138 7.138 0 01-7.13 7.13h-20.74a7.137 7.137 0 01-7.129-7.13v-.648h6.661a3.241 3.241 0 000-6.481h-6.661v-7.783h6.661a3.241 3.241 0 000-6.481h-6.661V83.08h6.661a3.241 3.241 0 000-6.481h-6.661v-.648a7.137 7.137 0 017.129-7.129h20.74a7.138 7.138 0 017.13 7.129zm-73.936 32.744a3.242 3.242 0 102.291.95 3.264 3.264 0 00-2.291-.95z"/><g opacity=".18"><path class="e" d="M56.199 3.734a51.261 51.261 0 00-51.2 51.2v63.52a51.219 51.219 0 0075.39 45.141 3.241 3.241 0 00-3.066-5.71 44.839 44.839 0 01-25.74 5.054 77.481 77.481 0 0122.834-53.805l26.506-26.507v35.827a44.242 44.242 0 01-4.81 20.2 3.241 3.241 0 105.78 2.932 50.667 50.667 0 005.511-23.13V54.934a51.261 51.261 0 00-51.205-51.2zm-35.73 95.33a71.053 71.053 0 0035.5 23.745 85.137 85.137 0 00-7.844 19.011A63.1 63.1 0 0111.48 84.815v-.342a70.278 70.278 0 008.989 14.591zm-8.989 19.39v-4.369a69.407 69.407 0 0035.139 34.162 84.2 84.2 0 00-1.494 13.54 44.8 44.8 0 01-33.645-43.333zm58.354-13.9a84.429 84.429 0 00-10.321 12.516 63.882 63.882 0 01-36.309-25.027 41.772 41.772 0 0110.255-9.677 35.576 35.576 0 0045.479 0 41.214 41.214 0 017.113 5.968zM56.199 25.771a3.943 3.943 0 110 7.886 3.241 3.241 0 000 6.481 10.43 10.43 0 0010.213-12.52 29.166 29.166 0 11-10.213-1.847zm44.724 47.712a4.839 4.839 0 00-.227.2L90.64 83.743a47.672 47.672 0 00-7.03-6.039 35.647 35.647 0 10-54.815 0 48.363 48.363 0 00-9.246 8.522 64.268 64.268 0 01-8.069-31.292 44.721 44.721 0 1189.443 0z"/><path class="e" d="M56.201 73.099a8.823 8.823 0 006.258-2.588 3.241 3.241 0 10-4.583-4.583 2.37 2.37 0 01-3.35 0 3.241 3.241 0 10-4.583 4.583 8.824 8.824 0 006.258 2.588zM44.387 54.463a3.242 3.242 0 10-2.291-.949 3.25 3.25 0 002.291.949zm23.63 0a3.242 3.242 0 10-2.291-.949 3.265 3.265 0 002.291.949zm99.349 16.063a6.371 6.371 0 001.735-4.368v-3.32a9.733 9.733 0 00-9.722-9.722h-2.719v-3.085a9.765 9.765 0 00-9.371-9.871 9.722 9.722 0 00-10.073 9.716v3.241H134.5a9.733 9.733 0 00-9.722 9.722v3.32a6.371 6.371 0 001.735 4.368 13.556 13.556 0 00-3.553 9.162v36.3a13.626 13.626 0 0013.611 13.611h20.74a13.626 13.626 0 0013.611-13.611v-36.3a13.556 13.556 0 00-3.556-9.163zm-36.1-7.688a3.244 3.244 0 013.241-3.241h2.816a6.388 6.388 0 006.381-6.381v-3.343a3.241 3.241 0 013.362-3.238 3.349 3.349 0 013.12 3.394v3.186a6.388 6.388 0 006.381 6.381h2.816a3.244 3.244 0 013.241 3.241v3.241H131.26v-3.241zm33.178 53.147a7.138 7.138 0 01-7.13 7.13h-20.74a7.137 7.137 0 01-7.129-7.13v-.648h6.661a3.241 3.241 0 000-6.481h-6.661v-7.783h6.661a3.241 3.241 0 000-6.481h-6.661v-7.778h6.661a3.241 3.241 0 000-6.481h-6.661v-.648a7.137 7.137 0 017.129-7.129h20.74a7.138 7.138 0 017.13 7.129zm-73.936 32.744a3.242 3.242 0 102.291.95 3.264 3.264 0 00-2.291-.95z"/></g></svg>