<svg xmlns="http://www.w3.org/2000/svg" width="15.241" height="17.34"><g data-name="Group 1878"><g data-name="Group 1877"><path data-name="Path 580" d="M3.556 7.112a1.526 1.526 0 00-1.524 1.524v4.132a1.524 1.524 0 103.048 0V8.636a1.526 1.526 0 00-1.524-1.524z" fill="#8ba9ee"/></g></g><g data-name="Group 1880"><g data-name="Group 1879"><path data-name="Path 581" d="M1.016 8.636a2.52 2.52 0 01.043-.428A1.521 1.521 0 000 9.652v2.1a1.521 1.521 0 001.059 1.444 2.52 2.52 0 01-.043-.428z" fill="#8ba9ee"/></g></g><g data-name="Group 1882"><g data-name="Group 1881"><path data-name="Path 582" d="M11.684 7.112a1.526 1.526 0 00-1.524 1.524v4.132a1.526 1.526 0 001.524 1.524 1.5 1.5 0 00.437-.071 1.521 1.521 0 01-1.453 1.087H9.05a1.524 1.524 0 100 1.016h1.618a2.543 2.543 0 002.54-2.54V8.636a1.526 1.526 0 00-1.524-1.524z" fill="#8ba9ee"/></g></g><g data-name="Group 1884"><g data-name="Group 1883"><path data-name="Path 583" d="M14.181 8.208a2.522 2.522 0 01.043.428v4.132a2.522 2.522 0 01-.043.428 1.521 1.521 0 001.059-1.444v-2.1a1.521 1.521 0 00-1.059-1.444z" fill="#8ba9ee"/></g></g><g data-name="Group 1886"><g data-name="Group 1885"><path data-name="Path 584" d="M7.62 0A7.629 7.629 0 000 7.62v.013a2.516 2.516 0 011.039-.472 6.6 6.6 0 0113.162 0 2.516 2.516 0 011.039.472V7.62A7.629 7.629 0 007.62 0z" fill="#8ba9ee"/></g></g></svg>