<svg xmlns="http://www.w3.org/2000/svg" width="25.006" height="22.246"><path d="M11.538 21.884a268.595 268.595 0 00-2.844-2.446 53.011 53.011 0 01-6.208-5.828A9.3 9.3 0 01.001 7.516a7.818 7.818 0 011.985-5.339 6.725 6.725 0 015-2.176 6.293 6.293 0 013.929 1.357 8.025 8.025 0 011.587 1.658 8.045 8.045 0 011.589-1.658A6.291 6.291 0 0118.021 0a6.726 6.726 0 015 2.176 7.819 7.819 0 011.983 5.339 9.3 9.3 0 01-2.479 6.091 52.875 52.875 0 01-6.207 5.827c-.862.734-1.837 1.566-2.849 2.451a1.468 1.468 0 01-.968.362 1.466 1.466 0 01-.963-.362z" fill="#fed638"/></svg>