<svg xmlns="http://www.w3.org/2000/svg" width="43.006" height="38.081"><defs><style>.a{fill:#8ba9ee}</style></defs><circle class="a" cx="2.955" cy="2.955" r="2.955" transform="translate(13.255 9.397)"/><path class="a" d="M40.461 23.226a9.1 9.1 0 00-5.088-2.421V5.786a5.908 5.908 0 00-1.682-4.1A5.734 5.734 0 0029.587 0H5.786a5.908 5.908 0 00-4.1 1.682A5.734 5.734 0 000 5.786v24.5a5.908 5.908 0 001.682 4.1 5.734 5.734 0 004.1 1.682h23.025a8.682 8.682 0 0011.654-12.842zM2.175 5.786a3.643 3.643 0 013.611-3.611h23.8A3.643 3.643 0 0133.2 5.786v12.8l-6.073-6.032a1.1 1.1 0 00-1.559 0l-9.151 9.192-6.2-6.237a1.1 1.1 0 00-1.559 0l-6.483 6.568zm3.57 28.151V33.9A3.6 3.6 0 013.2 32.829a3.745 3.745 0 01-1.026-2.544v-5.13l7.3-7.3 6.2 6.2a1.141 1.141 0 001.559 0l9.151-9.192 5.991 6.032-.369.123a3.81 3.81 0 00-.533.164c-.164.041-.328.123-.492.164a1.229 1.229 0 00-.328.164 3.813 3.813 0 00-.41.205l-.616.369c-.123.082-.205.123-.328.205-.082.041-.123.082-.205.123a4.951 4.951 0 00-.985.862 8.681 8.681 0 00-2.544 6.155 9.021 9.021 0 00.205 1.806c.041.164.082.287.123.451.123.41.246.821.41 1.231v.041a7.527 7.527 0 00.533.985zm33.116.041a6.491 6.491 0 01-9.069.082c-.164-.164-.328-.369-.492-.533-.123-.123-.246-.287-.369-.41a3.9 3.9 0 01-.41-.7c-.082-.164-.164-.287-.246-.451a3.466 3.466 0 01-.205-.7c-.041-.164-.123-.369-.164-.533a6.792 6.792 0 01-.123-1.313 6.587 6.587 0 011.888-4.6 6.414 6.414 0 014.6-1.888 6.587 6.587 0 014.6 1.888 6.344 6.344 0 011.888 4.6 6.563 6.563 0 01-1.898 4.558z"/><path class="a" d="M37.835 28.274h-2.5v-2.5a1.108 1.108 0 00-2.216 0v2.5h-2.5a1.108 1.108 0 100 2.216h2.5v2.5a1.108 1.108 0 102.216 0v-2.5h2.5a1.108 1.108 0 100-2.216z"/></svg>