<svg xmlns="http://www.w3.org/2000/svg" width="26.933" height="23.849"><defs><style>.a{fill:#8ba9ee}</style></defs><circle class="a" cx="1.85" cy="1.85" r="1.85" transform="translate(8.301 5.885)"/><path class="a" d="M25.339 14.546a5.7 5.7 0 00-3.187-1.516V3.624a3.7 3.7 0 00-1.054-2.57A3.591 3.591 0 0018.529 0H3.624a3.7 3.7 0 00-2.57 1.054A3.591 3.591 0 000 3.624v15.342a3.7 3.7 0 001.054 2.57 3.591 3.591 0 002.57 1.054h14.417a5.437 5.437 0 007.3-8.044zM1.362 3.624a2.282 2.282 0 012.262-2.262h14.905a2.282 2.282 0 012.262 2.262v8.018l-3.8-3.778a.69.69 0 00-.977 0l-5.734 5.757L6.4 9.714a.69.69 0 00-.977 0l-4.06 4.112zM3.6 21.253v-.026a2.255 2.255 0 01-1.6-.668 2.345 2.345 0 01-.642-1.593v-3.212l4.574-4.574 3.885 3.88a.715.715 0 00.977 0l5.731-5.76 3.752 3.778-.231.077a2.386 2.386 0 00-.334.1c-.1.026-.206.077-.308.1a.769.769 0 00-.206.1 2.387 2.387 0 00-.257.128l-.385.231c-.077.051-.128.077-.206.128-.051.026-.077.051-.128.077a3.1 3.1 0 00-.617.54 5.437 5.437 0 00-1.593 3.855 5.65 5.65 0 00.128 1.131c.026.1.051.18.077.283.077.257.154.514.257.771v.026a4.714 4.714 0 00.334.617zm20.739.026a4.065 4.065 0 01-5.68.051c-.1-.1-.206-.231-.308-.334-.077-.077-.154-.18-.231-.257a2.44 2.44 0 01-.257-.437c-.051-.1-.1-.18-.154-.283a2.171 2.171 0 01-.128-.437c-.026-.1-.077-.231-.1-.334a4.254 4.254 0 01-.077-.822 4.125 4.125 0 011.182-2.878 4.017 4.017 0 012.878-1.182 4.125 4.125 0 012.878 1.182 3.973 3.973 0 011.182 2.878 4.11 4.11 0 01-1.187 2.853z"/><path class="a" d="M23.695 17.707h-1.568v-1.568a.694.694 0 10-1.388 0v1.568h-1.568a.694.694 0 000 1.388h1.568v1.568a.694.694 0 101.388 0v-1.568h1.568a.694.694 0 100-1.388z"/></svg>