<svg xmlns="http://www.w3.org/2000/svg" width="58.149" height="65.417"><defs><style>.a{fill:#8ba9ee}</style></defs><path class="a" d="M47.246 43.611a10.9 10.9 0 1010.9 10.9 10.915 10.915 0 00-10.9-10.9zm0 19.383a8.48 8.48 0 118.48-8.48 8.489 8.489 0 01-8.48 8.48z"/><path class="a" d="M52.091 53.303h-3.634v-3.634a1.212 1.212 0 00-2.423 0v3.634H42.4a1.212 1.212 0 100 2.423h3.634v3.634a1.212 1.212 0 102.423 0v-3.634h3.634a1.212 1.212 0 100-2.423z"/><path class="a" d="M50.505 16.458L33.64.336A1.212 1.212 0 0032.804 0H1.211A1.211 1.211 0 000 1.211v62.995a1.212 1.212 0 001.211 1.211H33.92a1.212 1.212 0 100-2.423H2.42V2.423h29.077v15.748a1.211 1.211 0 001.211 1.211h15.747v20.595a1.212 1.212 0 002.423 0V17.334a1.211 1.211 0 00-.373-.876zm-16.586.5V3.955L47.525 16.96z"/><path class="a" d="M35.82 34.135l-15.749-10.9a1.211 1.211 0 00-1.9 1v21.806a1.211 1.211 0 001.9 1l15.749-10.9a1.211 1.211 0 000-1.992zm-15.226 9.587V26.54l12.409 8.591z"/></svg>