<svg width="100" height="92" fill="none" xmlns="http://www.w3.org/2000/svg"><path d="M11.412 59.082s-1.28-5.848 12.165-5.848c0 0 19.746-4.484 29.031-18.523 9.286-14.036-.748-8.09 30.734-2.532 0 0 2.135-.198 2.03 1.558-.11 1.755 3.63 19.693 2.243 23.98 0 0 2.237-.194.85 7.894 0 0-9.392 3.026-40.875 2.149-31.482-.881-36.71-4.878-36.71-4.878s-2.243-1.556.532-3.8z" stroke="#fff" stroke-width="2" stroke-miterlimit="10"/><path d="M55.533 29.817s4.717 1.576 9.665-1.576" stroke="#fff" stroke-width="3" stroke-miterlimit="10"/><path d="M86.13 41.688S64.732 55.137 54.5 55.451c-10.237.318-2.417-8.823-2.417-8.823l2.073-2.523s-2.073 8.092 7.13 4.413c9.204-3.678 24.039-9.77 24.039-9.77m-50.342 9.979s2.138 13.189 11.35 13.029m-34.921-2.674s48.163 6.78 76.203-1.366" stroke="#fff" stroke-width="2" stroke-miterlimit="10"/><path d="M51.302 42.507c.551 0 .998-.409.998-.912 0-.503-.447-.912-.998-.912-.551 0-.998.409-.998.912 0 .503.447.912.998.912zm-2.604 2.38c.551 0 .998-.408.998-.912 0-.503-.447-.911-.998-.911-.551 0-.998.408-.998.911 0 .504.447.912.998.912zm-2.954 2.103c.55 0 .998-.408.998-.912 0-.503-.447-.911-.998-.911-.551 0-.998.408-.998.911 0 .504.447.912.998.912zm-3.469 2.06c.551 0 .998-.409.998-.912 0-.504-.447-.912-.998-.912-.551 0-.998.408-.998.912 0 .503.447.911.998.911z" fill="#fff"/><path d="M71.667 49.677c1.79 3.178 2.937 6.7 2.77 10.429m-5.622-14.633c-5.96-7.44-14.442-12.236-14.442-12.236m31.607.344s6.287-.027.814 8.627" stroke="#fff" stroke-width="2" stroke-miterlimit="10"/><path d="M51.648 35.88v.21" stroke="#fff" stroke-miterlimit="10"/><path d="M12.585 56.338s10.817-.153 15.8.171c2.023.133 5.217-.952 8.305-2.284" stroke="#fff" stroke-width="2" stroke-miterlimit="10"/></svg>