<svg width="100" height="92" fill="none" xmlns="http://www.w3.org/2000/svg"><path d="M52.825 61.76l8.52-2.505V57.26l-8.52 2.504v1.996zm0-3.653l8.52-2.505v-1.995l-8.52 2.505v1.995z" fill="#fff"/><path d="M80.826 33.444h-.002v-.002a4.148 4.148 0 00-1.858-1.081l-27.043-7.467a7.52 7.52 0 00-4.02 0l-27.046 7.467a4.146 4.146 0 00-1.855 1.081l-.001.001-.002.002a3.538 3.538 0 00-1.03 2.47v19.643a3.484 3.484 0 00.795 2.214 4.06 4.06 0 002.09 1.338l27.038 7.5a7.508 7.508 0 002.02.276c.093 0 .186-.012.277-.034l-.006.025a7.447 7.447 0 001.746-.266l27.062-7.508a4.055 4.055 0 002.074-1.34 3.483 3.483 0 00.789-2.205V35.915a3.54 3.54 0 00-1.028-2.47zM48.837 64.813a4.997 4.997 0 01-.319-.078l-27.04-7.502a1.914 1.914 0 01-.985-.63 1.642 1.642 0 01-.376-1.044V35.915c0-.228.05-.454.145-.666l27.99 7.767.102.028.483.134v21.634zm1.074-23.387L22.75 33.889l25.776-7.117a5.193 5.193 0 012.775 0l25.774 7.117-8.462 2.347-12.651-3.483a.804.804 0 00-.425-.003l-6.378 1.654a.396.396 0 00-.205.128.34.34 0 00-.08.215.336.336 0 00.076.215.39.39 0 00.203.131l11.852 3.254-11.094 3.078zm29.795 14.133c.002.373-.128.737-.37 1.037-.242.3-.583.522-.974.632l-27.06 7.507a4.99 4.99 0 01-.316.078V43.178l11.834-3.283v8.032c0 .107.027.213.079.309a.721.721 0 00.22.244.83.83 0 00.662.117l6.128-1.542a.766.766 0 00.402-.248.659.659 0 00.156-.421v-8.394c0-.072-.005-.143-.015-.214l9.254-2.568v20.348z" fill="#fff"/></svg>