<svg width="100" height="92" fill="none" xmlns="http://www.w3.org/2000/svg"><path d="M74.992 72.163H24.008c-.621 0-1.22-.211-1.683-.594a2.282 2.282 0 01-.825-1.482l-4.485-37.35a2.17 2.17 0 01.105-.97 2.3 2.3 0 01.523-.845c.237-.245.526-.44.85-.575a2.697 2.697 0 011.03-.203h59.954a2.7 2.7 0 011.03.204c.324.134.613.33.85.574a2.3 2.3 0 01.523.845c.108.313.144.643.105.97L77.5 70.087a2.282 2.282 0 01-.825 1.481 2.641 2.641 0 01-1.683.596z" stroke="#fff" stroke-width="2" stroke-linecap="round" stroke-linejoin="round"/><path d="M37 39.279V29.94c0-3.095 1.317-6.064 3.661-8.253 2.344-2.189 5.524-3.419 8.839-3.419 3.315 0 6.495 1.23 8.839 3.419C60.683 23.877 62 26.846 62 29.94v9.338" stroke="#fff" stroke-width="2" stroke-linecap="round" stroke-linejoin="round"/></svg>